<?xml version="1.0" encoding="utf-8" standalone="no"?>
<!DOCTYPE svg PUBLIC "-//W3C//DTD SVG 1.1//EN"
  "http://www.w3.org/Graphics/SVG/1.1/DTD/svg11.dtd">
<svg xmlns:xlink="http://www.w3.org/1999/xlink" width="460.8pt" height="345.6pt" viewBox="0 0 460.8 345.6" xmlns="http://www.w3.org/2000/svg" version="1.1">
 <metadata>
  <rdf:RDF xmlns:dc="http://purl.org/dc/elements/1.1/" xmlns:cc="http://creativecommons.org/ns#" xmlns:rdf="http://www.w3.org/1999/02/22-rdf-syntax-ns#">
   <cc:Work>
    <dc:type rdf:resource="http://purl.org/dc/dcmitype/StillImage"/>
    <dc:date>2024-10-17T22:33:45.272834</dc:date>
    <dc:format>image/svg+xml</dc:format>
    <dc:creator>
     <cc:Agent>
      <dc:title>Matplotlib v3.7.1, https://matplotlib.org/</dc:title>
     </cc:Agent>
    </dc:creator>
   </cc:Work>
  </rdf:RDF>
 </metadata>
 <defs>
  <style type="text/css">*{stroke-linejoin: round; stroke-linecap: butt}</style>
 </defs>
 <g id="figure_1">
  <g id="patch_1">
   <path d="M 0 345.6 
L 460.8 345.6 
L 460.8 0 
L 0 0 
z
" style="fill: #ffffff"/>
  </g>
  <g id="axes_1">
   <g id="patch_2">
    <path d="M 57.6 307.584 
L 414.72 307.584 
L 414.72 41.472 
L 57.6 41.472 
z
" style="fill: #ffffff"/>
   </g>
   <g id="matplotlib.axis_1">
    <g id="xtick_1">
     <g id="line2d_1">
      <defs>
       <path id="m824f28582a" d="M 0 0 
L 0 3.5 
" style="stroke: #000000; stroke-width: 0.8"/>
      </defs>
      <g>
       <use xlink:href="#m824f28582a" x="73.832727" y="307.584" style="stroke: #000000; stroke-width: 0.8"/>
      </g>
     </g>
     <g id="text_1">
      <!-- 0 -->
      <g transform="translate(70.651477 322.182437) scale(0.1 -0.1)">
       <defs>
        <path id="DejaVuSans-30" d="M 2034 4250 
Q 1547 4250 1301 3770 
Q 1056 3291 1056 2328 
Q 1056 1369 1301 889 
Q 1547 409 2034 409 
Q 2525 409 2770 889 
Q 3016 1369 3016 2328 
Q 3016 3291 2770 3770 
Q 2525 4250 2034 4250 
z
M 2034 4750 
Q 2819 4750 3233 4129 
Q 3647 3509 3647 2328 
Q 3647 1150 3233 529 
Q 2819 -91 2034 -91 
Q 1250 -91 836 529 
Q 422 1150 422 2328 
Q 422 3509 836 4129 
Q 1250 4750 2034 4750 
z
" transform="scale(0.015625)"/>
       </defs>
       <use xlink:href="#DejaVuSans-30"/>
      </g>
     </g>
    </g>
    <g id="xtick_2">
     <g id="line2d_2">
      <g>
       <use xlink:href="#m824f28582a" x="141.97233" y="307.584" style="stroke: #000000; stroke-width: 0.8"/>
      </g>
     </g>
     <g id="text_2">
      <!-- 20 -->
      <g transform="translate(135.60983 322.182437) scale(0.1 -0.1)">
       <defs>
        <path id="DejaVuSans-32" d="M 1228 531 
L 3431 531 
L 3431 0 
L 469 0 
L 469 531 
Q 828 903 1448 1529 
Q 2069 2156 2228 2338 
Q 2531 2678 2651 2914 
Q 2772 3150 2772 3378 
Q 2772 3750 2511 3984 
Q 2250 4219 1831 4219 
Q 1534 4219 1204 4116 
Q 875 4013 500 3803 
L 500 4441 
Q 881 4594 1212 4672 
Q 1544 4750 1819 4750 
Q 2544 4750 2975 4387 
Q 3406 4025 3406 3419 
Q 3406 3131 3298 2873 
Q 3191 2616 2906 2266 
Q 2828 2175 2409 1742 
Q 1991 1309 1228 531 
z
" transform="scale(0.015625)"/>
       </defs>
       <use xlink:href="#DejaVuSans-32"/>
       <use xlink:href="#DejaVuSans-30" x="63.623047"/>
      </g>
     </g>
    </g>
    <g id="xtick_3">
     <g id="line2d_3">
      <g>
       <use xlink:href="#m824f28582a" x="210.111933" y="307.584" style="stroke: #000000; stroke-width: 0.8"/>
      </g>
     </g>
     <g id="text_3">
      <!-- 40 -->
      <g transform="translate(203.749433 322.182437) scale(0.1 -0.1)">
       <defs>
        <path id="DejaVuSans-34" d="M 2419 4116 
L 825 1625 
L 2419 1625 
L 2419 4116 
z
M 2253 4666 
L 3047 4666 
L 3047 1625 
L 3713 1625 
L 3713 1100 
L 3047 1100 
L 3047 0 
L 2419 0 
L 2419 1100 
L 313 1100 
L 313 1709 
L 2253 4666 
z
" transform="scale(0.015625)"/>
       </defs>
       <use xlink:href="#DejaVuSans-34"/>
       <use xlink:href="#DejaVuSans-30" x="63.623047"/>
      </g>
     </g>
    </g>
    <g id="xtick_4">
     <g id="line2d_4">
      <g>
       <use xlink:href="#m824f28582a" x="278.251536" y="307.584" style="stroke: #000000; stroke-width: 0.8"/>
      </g>
     </g>
     <g id="text_4">
      <!-- 60 -->
      <g transform="translate(271.889036 322.182437) scale(0.1 -0.1)">
       <defs>
        <path id="DejaVuSans-36" d="M 2113 2584 
Q 1688 2584 1439 2293 
Q 1191 2003 1191 1497 
Q 1191 994 1439 701 
Q 1688 409 2113 409 
Q 2538 409 2786 701 
Q 3034 994 3034 1497 
Q 3034 2003 2786 2293 
Q 2538 2584 2113 2584 
z
M 3366 4563 
L 3366 3988 
Q 3128 4100 2886 4159 
Q 2644 4219 2406 4219 
Q 1781 4219 1451 3797 
Q 1122 3375 1075 2522 
Q 1259 2794 1537 2939 
Q 1816 3084 2150 3084 
Q 2853 3084 3261 2657 
Q 3669 2231 3669 1497 
Q 3669 778 3244 343 
Q 2819 -91 2113 -91 
Q 1303 -91 875 529 
Q 447 1150 447 2328 
Q 447 3434 972 4092 
Q 1497 4750 2381 4750 
Q 2619 4750 2861 4703 
Q 3103 4656 3366 4563 
z
" transform="scale(0.015625)"/>
       </defs>
       <use xlink:href="#DejaVuSans-36"/>
       <use xlink:href="#DejaVuSans-30" x="63.623047"/>
      </g>
     </g>
    </g>
    <g id="xtick_5">
     <g id="line2d_5">
      <g>
       <use xlink:href="#m824f28582a" x="346.391139" y="307.584" style="stroke: #000000; stroke-width: 0.8"/>
      </g>
     </g>
     <g id="text_5">
      <!-- 80 -->
      <g transform="translate(340.028639 322.182437) scale(0.1 -0.1)">
       <defs>
        <path id="DejaVuSans-38" d="M 2034 2216 
Q 1584 2216 1326 1975 
Q 1069 1734 1069 1313 
Q 1069 891 1326 650 
Q 1584 409 2034 409 
Q 2484 409 2743 651 
Q 3003 894 3003 1313 
Q 3003 1734 2745 1975 
Q 2488 2216 2034 2216 
z
M 1403 2484 
Q 997 2584 770 2862 
Q 544 3141 544 3541 
Q 544 4100 942 4425 
Q 1341 4750 2034 4750 
Q 2731 4750 3128 4425 
Q 3525 4100 3525 3541 
Q 3525 3141 3298 2862 
Q 3072 2584 2669 2484 
Q 3125 2378 3379 2068 
Q 3634 1759 3634 1313 
Q 3634 634 3220 271 
Q 2806 -91 2034 -91 
Q 1263 -91 848 271 
Q 434 634 434 1313 
Q 434 1759 690 2068 
Q 947 2378 1403 2484 
z
M 1172 3481 
Q 1172 3119 1398 2916 
Q 1625 2713 2034 2713 
Q 2441 2713 2670 2916 
Q 2900 3119 2900 3481 
Q 2900 3844 2670 4047 
Q 2441 4250 2034 4250 
Q 1625 4250 1398 4047 
Q 1172 3844 1172 3481 
z
" transform="scale(0.015625)"/>
       </defs>
       <use xlink:href="#DejaVuSans-38"/>
       <use xlink:href="#DejaVuSans-30" x="63.623047"/>
      </g>
     </g>
    </g>
    <g id="xtick_6">
     <g id="line2d_6">
      <g>
       <use xlink:href="#m824f28582a" x="414.530742" y="307.584" style="stroke: #000000; stroke-width: 0.8"/>
      </g>
     </g>
     <g id="text_6">
      <!-- 100 -->
      <g transform="translate(404.986992 322.182437) scale(0.1 -0.1)">
       <defs>
        <path id="DejaVuSans-31" d="M 794 531 
L 1825 531 
L 1825 4091 
L 703 3866 
L 703 4441 
L 1819 4666 
L 2450 4666 
L 2450 531 
L 3481 531 
L 3481 0 
L 794 0 
L 794 531 
z
" transform="scale(0.015625)"/>
       </defs>
       <use xlink:href="#DejaVuSans-31"/>
       <use xlink:href="#DejaVuSans-30" x="63.623047"/>
       <use xlink:href="#DejaVuSans-30" x="127.246094"/>
      </g>
     </g>
    </g>
    <g id="text_7">
     <!-- Time (s) -->
     <g transform="translate(215.831094 335.860562) scale(0.1 -0.1)">
      <defs>
       <path id="DejaVuSans-54" d="M -19 4666 
L 3928 4666 
L 3928 4134 
L 2272 4134 
L 2272 0 
L 1638 0 
L 1638 4134 
L -19 4134 
L -19 4666 
z
" transform="scale(0.015625)"/>
       <path id="DejaVuSans-69" d="M 603 3500 
L 1178 3500 
L 1178 0 
L 603 0 
L 603 3500 
z
M 603 4863 
L 1178 4863 
L 1178 4134 
L 603 4134 
L 603 4863 
z
" transform="scale(0.015625)"/>
       <path id="DejaVuSans-6d" d="M 3328 2828 
Q 3544 3216 3844 3400 
Q 4144 3584 4550 3584 
Q 5097 3584 5394 3201 
Q 5691 2819 5691 2113 
L 5691 0 
L 5113 0 
L 5113 2094 
Q 5113 2597 4934 2840 
Q 4756 3084 4391 3084 
Q 3944 3084 3684 2787 
Q 3425 2491 3425 1978 
L 3425 0 
L 2847 0 
L 2847 2094 
Q 2847 2600 2669 2842 
Q 2491 3084 2119 3084 
Q 1678 3084 1418 2786 
Q 1159 2488 1159 1978 
L 1159 0 
L 581 0 
L 581 3500 
L 1159 3500 
L 1159 2956 
Q 1356 3278 1631 3431 
Q 1906 3584 2284 3584 
Q 2666 3584 2933 3390 
Q 3200 3197 3328 2828 
z
" transform="scale(0.015625)"/>
       <path id="DejaVuSans-65" d="M 3597 1894 
L 3597 1613 
L 953 1613 
Q 991 1019 1311 708 
Q 1631 397 2203 397 
Q 2534 397 2845 478 
Q 3156 559 3463 722 
L 3463 178 
Q 3153 47 2828 -22 
Q 2503 -91 2169 -91 
Q 1331 -91 842 396 
Q 353 884 353 1716 
Q 353 2575 817 3079 
Q 1281 3584 2069 3584 
Q 2775 3584 3186 3129 
Q 3597 2675 3597 1894 
z
M 3022 2063 
Q 3016 2534 2758 2815 
Q 2500 3097 2075 3097 
Q 1594 3097 1305 2825 
Q 1016 2553 972 2059 
L 3022 2063 
z
" transform="scale(0.015625)"/>
       <path id="DejaVuSans-20" transform="scale(0.015625)"/>
       <path id="DejaVuSans-28" d="M 1984 4856 
Q 1566 4138 1362 3434 
Q 1159 2731 1159 2009 
Q 1159 1288 1364 580 
Q 1569 -128 1984 -844 
L 1484 -844 
Q 1016 -109 783 600 
Q 550 1309 550 2009 
Q 550 2706 781 3412 
Q 1013 4119 1484 4856 
L 1984 4856 
z
" transform="scale(0.015625)"/>
       <path id="DejaVuSans-73" d="M 2834 3397 
L 2834 2853 
Q 2591 2978 2328 3040 
Q 2066 3103 1784 3103 
Q 1356 3103 1142 2972 
Q 928 2841 928 2578 
Q 928 2378 1081 2264 
Q 1234 2150 1697 2047 
L 1894 2003 
Q 2506 1872 2764 1633 
Q 3022 1394 3022 966 
Q 3022 478 2636 193 
Q 2250 -91 1575 -91 
Q 1294 -91 989 -36 
Q 684 19 347 128 
L 347 722 
Q 666 556 975 473 
Q 1284 391 1588 391 
Q 1994 391 2212 530 
Q 2431 669 2431 922 
Q 2431 1156 2273 1281 
Q 2116 1406 1581 1522 
L 1381 1569 
Q 847 1681 609 1914 
Q 372 2147 372 2553 
Q 372 3047 722 3315 
Q 1072 3584 1716 3584 
Q 2034 3584 2315 3537 
Q 2597 3491 2834 3397 
z
" transform="scale(0.015625)"/>
       <path id="DejaVuSans-29" d="M 513 4856 
L 1013 4856 
Q 1481 4119 1714 3412 
Q 1947 2706 1947 2009 
Q 1947 1309 1714 600 
Q 1481 -109 1013 -844 
L 513 -844 
Q 928 -128 1133 580 
Q 1338 1288 1338 2009 
Q 1338 2731 1133 3434 
Q 928 4138 513 4856 
z
" transform="scale(0.015625)"/>
      </defs>
      <use xlink:href="#DejaVuSans-54"/>
      <use xlink:href="#DejaVuSans-69" x="57.958984"/>
      <use xlink:href="#DejaVuSans-6d" x="85.742188"/>
      <use xlink:href="#DejaVuSans-65" x="183.154297"/>
      <use xlink:href="#DejaVuSans-20" x="244.677734"/>
      <use xlink:href="#DejaVuSans-28" x="276.464844"/>
      <use xlink:href="#DejaVuSans-73" x="315.478516"/>
      <use xlink:href="#DejaVuSans-29" x="367.578125"/>
     </g>
    </g>
   </g>
   <g id="matplotlib.axis_2">
    <g id="ytick_1">
     <g id="line2d_7">
      <defs>
       <path id="me4831999f3" d="M 0 0 
L -3.5 0 
" style="stroke: #000000; stroke-width: 0.8"/>
      </defs>
      <g>
       <use xlink:href="#me4831999f3" x="57.6" y="295.650916" style="stroke: #000000; stroke-width: 0.8"/>
      </g>
     </g>
     <g id="text_8">
      <!-- 0 -->
      <g transform="translate(44.2375 299.450135) scale(0.1 -0.1)">
       <use xlink:href="#DejaVuSans-30"/>
      </g>
     </g>
    </g>
    <g id="ytick_2">
     <g id="line2d_8">
      <g>
       <use xlink:href="#me4831999f3" x="57.6" y="247.348095" style="stroke: #000000; stroke-width: 0.8"/>
      </g>
     </g>
     <g id="text_9">
      <!-- 1000 -->
      <g transform="translate(25.15 251.147314) scale(0.1 -0.1)">
       <use xlink:href="#DejaVuSans-31"/>
       <use xlink:href="#DejaVuSans-30" x="63.623047"/>
       <use xlink:href="#DejaVuSans-30" x="127.246094"/>
       <use xlink:href="#DejaVuSans-30" x="190.869141"/>
      </g>
     </g>
    </g>
    <g id="ytick_3">
     <g id="line2d_9">
      <g>
       <use xlink:href="#me4831999f3" x="57.6" y="199.045275" style="stroke: #000000; stroke-width: 0.8"/>
      </g>
     </g>
     <g id="text_10">
      <!-- 2000 -->
      <g transform="translate(25.15 202.844494) scale(0.1 -0.1)">
       <use xlink:href="#DejaVuSans-32"/>
       <use xlink:href="#DejaVuSans-30" x="63.623047"/>
       <use xlink:href="#DejaVuSans-30" x="127.246094"/>
       <use xlink:href="#DejaVuSans-30" x="190.869141"/>
      </g>
     </g>
    </g>
    <g id="ytick_4">
     <g id="line2d_10">
      <g>
       <use xlink:href="#me4831999f3" x="57.6" y="150.742455" style="stroke: #000000; stroke-width: 0.8"/>
      </g>
     </g>
     <g id="text_11">
      <!-- 3000 -->
      <g transform="translate(25.15 154.541673) scale(0.1 -0.1)">
       <defs>
        <path id="DejaVuSans-33" d="M 2597 2516 
Q 3050 2419 3304 2112 
Q 3559 1806 3559 1356 
Q 3559 666 3084 287 
Q 2609 -91 1734 -91 
Q 1441 -91 1130 -33 
Q 819 25 488 141 
L 488 750 
Q 750 597 1062 519 
Q 1375 441 1716 441 
Q 2309 441 2620 675 
Q 2931 909 2931 1356 
Q 2931 1769 2642 2001 
Q 2353 2234 1838 2234 
L 1294 2234 
L 1294 2753 
L 1863 2753 
Q 2328 2753 2575 2939 
Q 2822 3125 2822 3475 
Q 2822 3834 2567 4026 
Q 2313 4219 1838 4219 
Q 1578 4219 1281 4162 
Q 984 4106 628 3988 
L 628 4550 
Q 988 4650 1302 4700 
Q 1616 4750 1894 4750 
Q 2613 4750 3031 4423 
Q 3450 4097 3450 3541 
Q 3450 3153 3228 2886 
Q 3006 2619 2597 2516 
z
" transform="scale(0.015625)"/>
       </defs>
       <use xlink:href="#DejaVuSans-33"/>
       <use xlink:href="#DejaVuSans-30" x="63.623047"/>
       <use xlink:href="#DejaVuSans-30" x="127.246094"/>
       <use xlink:href="#DejaVuSans-30" x="190.869141"/>
      </g>
     </g>
    </g>
    <g id="ytick_5">
     <g id="line2d_11">
      <g>
       <use xlink:href="#me4831999f3" x="57.6" y="102.439634" style="stroke: #000000; stroke-width: 0.8"/>
      </g>
     </g>
     <g id="text_12">
      <!-- 4000 -->
      <g transform="translate(25.15 106.238853) scale(0.1 -0.1)">
       <use xlink:href="#DejaVuSans-34"/>
       <use xlink:href="#DejaVuSans-30" x="63.623047"/>
       <use xlink:href="#DejaVuSans-30" x="127.246094"/>
       <use xlink:href="#DejaVuSans-30" x="190.869141"/>
      </g>
     </g>
    </g>
    <g id="ytick_6">
     <g id="line2d_12">
      <g>
       <use xlink:href="#me4831999f3" x="57.6" y="54.136814" style="stroke: #000000; stroke-width: 0.8"/>
      </g>
     </g>
     <g id="text_13">
      <!-- 5000 -->
      <g transform="translate(25.15 57.936033) scale(0.1 -0.1)">
       <defs>
        <path id="DejaVuSans-35" d="M 691 4666 
L 3169 4666 
L 3169 4134 
L 1269 4134 
L 1269 2991 
Q 1406 3038 1543 3061 
Q 1681 3084 1819 3084 
Q 2600 3084 3056 2656 
Q 3513 2228 3513 1497 
Q 3513 744 3044 326 
Q 2575 -91 1722 -91 
Q 1428 -91 1123 -41 
Q 819 9 494 109 
L 494 744 
Q 775 591 1075 516 
Q 1375 441 1709 441 
Q 2250 441 2565 725 
Q 2881 1009 2881 1497 
Q 2881 1984 2565 2268 
Q 2250 2553 1709 2553 
Q 1456 2553 1204 2497 
Q 953 2441 691 2322 
L 691 4666 
z
" transform="scale(0.015625)"/>
       </defs>
       <use xlink:href="#DejaVuSans-35"/>
       <use xlink:href="#DejaVuSans-30" x="63.623047"/>
       <use xlink:href="#DejaVuSans-30" x="127.246094"/>
       <use xlink:href="#DejaVuSans-30" x="190.869141"/>
      </g>
     </g>
    </g>
    <g id="text_14">
     <!-- Voltage (mV) -->
     <g transform="translate(19.070312 207.0655) rotate(-90) scale(0.1 -0.1)">
      <defs>
       <path id="DejaVuSans-56" d="M 1831 0 
L 50 4666 
L 709 4666 
L 2188 738 
L 3669 4666 
L 4325 4666 
L 2547 0 
L 1831 0 
z
" transform="scale(0.015625)"/>
       <path id="DejaVuSans-6f" d="M 1959 3097 
Q 1497 3097 1228 2736 
Q 959 2375 959 1747 
Q 959 1119 1226 758 
Q 1494 397 1959 397 
Q 2419 397 2687 759 
Q 2956 1122 2956 1747 
Q 2956 2369 2687 2733 
Q 2419 3097 1959 3097 
z
M 1959 3584 
Q 2709 3584 3137 3096 
Q 3566 2609 3566 1747 
Q 3566 888 3137 398 
Q 2709 -91 1959 -91 
Q 1206 -91 779 398 
Q 353 888 353 1747 
Q 353 2609 779 3096 
Q 1206 3584 1959 3584 
z
" transform="scale(0.015625)"/>
       <path id="DejaVuSans-6c" d="M 603 4863 
L 1178 4863 
L 1178 0 
L 603 0 
L 603 4863 
z
" transform="scale(0.015625)"/>
       <path id="DejaVuSans-74" d="M 1172 4494 
L 1172 3500 
L 2356 3500 
L 2356 3053 
L 1172 3053 
L 1172 1153 
Q 1172 725 1289 603 
Q 1406 481 1766 481 
L 2356 481 
L 2356 0 
L 1766 0 
Q 1100 0 847 248 
Q 594 497 594 1153 
L 594 3053 
L 172 3053 
L 172 3500 
L 594 3500 
L 594 4494 
L 1172 4494 
z
" transform="scale(0.015625)"/>
       <path id="DejaVuSans-61" d="M 2194 1759 
Q 1497 1759 1228 1600 
Q 959 1441 959 1056 
Q 959 750 1161 570 
Q 1363 391 1709 391 
Q 2188 391 2477 730 
Q 2766 1069 2766 1631 
L 2766 1759 
L 2194 1759 
z
M 3341 1997 
L 3341 0 
L 2766 0 
L 2766 531 
Q 2569 213 2275 61 
Q 1981 -91 1556 -91 
Q 1019 -91 701 211 
Q 384 513 384 1019 
Q 384 1609 779 1909 
Q 1175 2209 1959 2209 
L 2766 2209 
L 2766 2266 
Q 2766 2663 2505 2880 
Q 2244 3097 1772 3097 
Q 1472 3097 1187 3025 
Q 903 2953 641 2809 
L 641 3341 
Q 956 3463 1253 3523 
Q 1550 3584 1831 3584 
Q 2591 3584 2966 3190 
Q 3341 2797 3341 1997 
z
" transform="scale(0.015625)"/>
       <path id="DejaVuSans-67" d="M 2906 1791 
Q 2906 2416 2648 2759 
Q 2391 3103 1925 3103 
Q 1463 3103 1205 2759 
Q 947 2416 947 1791 
Q 947 1169 1205 825 
Q 1463 481 1925 481 
Q 2391 481 2648 825 
Q 2906 1169 2906 1791 
z
M 3481 434 
Q 3481 -459 3084 -895 
Q 2688 -1331 1869 -1331 
Q 1566 -1331 1297 -1286 
Q 1028 -1241 775 -1147 
L 775 -588 
Q 1028 -725 1275 -790 
Q 1522 -856 1778 -856 
Q 2344 -856 2625 -561 
Q 2906 -266 2906 331 
L 2906 616 
Q 2728 306 2450 153 
Q 2172 0 1784 0 
Q 1141 0 747 490 
Q 353 981 353 1791 
Q 353 2603 747 3093 
Q 1141 3584 1784 3584 
Q 2172 3584 2450 3431 
Q 2728 3278 2906 2969 
L 2906 3500 
L 3481 3500 
L 3481 434 
z
" transform="scale(0.015625)"/>
      </defs>
      <use xlink:href="#DejaVuSans-56"/>
      <use xlink:href="#DejaVuSans-6f" x="60.658203"/>
      <use xlink:href="#DejaVuSans-6c" x="121.839844"/>
      <use xlink:href="#DejaVuSans-74" x="149.623047"/>
      <use xlink:href="#DejaVuSans-61" x="188.832031"/>
      <use xlink:href="#DejaVuSans-67" x="250.111328"/>
      <use xlink:href="#DejaVuSans-65" x="313.587891"/>
      <use xlink:href="#DejaVuSans-20" x="375.111328"/>
      <use xlink:href="#DejaVuSans-28" x="406.898438"/>
      <use xlink:href="#DejaVuSans-6d" x="445.912109"/>
      <use xlink:href="#DejaVuSans-56" x="543.324219"/>
      <use xlink:href="#DejaVuSans-29" x="611.732422"/>
     </g>
    </g>
   </g>
   <g id="LineCollection_1">
    <path d="M 73.832727 57.410586 
L 73.832727 53.568 
" clip-path="url(#p757a1cc952)" style="fill: none; stroke: #1f77b4; stroke-width: 1.5"/>
    <path d="M 80.592176 97.516611 
L 80.592176 94.320896 
" clip-path="url(#p757a1cc952)" style="fill: none; stroke: #1f77b4; stroke-width: 1.5"/>
    <path d="M 87.358438 132.160167 
L 87.358438 129.523219 
" clip-path="url(#p757a1cc952)" style="fill: none; stroke: #1f77b4; stroke-width: 1.5"/>
    <path d="M 94.117887 163.401658 
L 94.117887 161.268605 
" clip-path="url(#p757a1cc952)" style="fill: none; stroke: #1f77b4; stroke-width: 1.5"/>
    <path d="M 100.88415 188.557767 
L 100.88415 186.830458 
" clip-path="url(#p757a1cc952)" style="fill: none; stroke: #1f77b4; stroke-width: 1.5"/>
    <path d="M 107.650412 208.874319 
L 107.650412 207.474697 
" clip-path="url(#p757a1cc952)" style="fill: none; stroke: #1f77b4; stroke-width: 1.5"/>
    <path d="M 114.413268 225.261727 
L 114.413268 224.126418 
" clip-path="url(#p757a1cc952)" style="fill: none; stroke: #1f77b4; stroke-width: 1.5"/>
    <path d="M 121.176123 238.486653 
L 121.176123 237.564649 
" clip-path="url(#p757a1cc952)" style="fill: none; stroke: #1f77b4; stroke-width: 1.5"/>
    <path d="M 127.938979 249.219926 
L 127.938979 248.471039 
" clip-path="url(#p757a1cc952)" style="fill: none; stroke: #1f77b4; stroke-width: 1.5"/>
    <path d="M 134.701835 258.036543 
L 134.701835 257.42986 
" clip-path="url(#p757a1cc952)" style="fill: none; stroke: #1f77b4; stroke-width: 1.5"/>
    <path d="M 141.46469 264.265675 
L 141.46469 263.759462 
" clip-path="url(#p757a1cc952)" style="fill: none; stroke: #1f77b4; stroke-width: 1.5"/>
    <path d="M 148.23436 270.207309 
L 148.23436 269.796928 
" clip-path="url(#p757a1cc952)" style="fill: none; stroke: #1f77b4; stroke-width: 1.5"/>
    <path d="M 154.997215 274.888741 
L 154.997215 274.553867 
" clip-path="url(#p757a1cc952)" style="fill: none; stroke: #1f77b4; stroke-width: 1.5"/>
    <path d="M 161.760071 278.688511 
L 161.760071 278.414924 
" clip-path="url(#p757a1cc952)" style="fill: none; stroke: #1f77b4; stroke-width: 1.5"/>
    <path d="M 168.522927 281.496412 
L 168.522927 281.268113 
" clip-path="url(#p757a1cc952)" style="fill: none; stroke: #1f77b4; stroke-width: 1.5"/>
    <path d="M 175.285782 284.285146 
L 175.285782 284.101827 
" clip-path="url(#p757a1cc952)" style="fill: none; stroke: #1f77b4; stroke-width: 1.5"/>
    <path d="M 182.048638 286.321593 
L 182.048638 286.17112 
" clip-path="url(#p757a1cc952)" style="fill: none; stroke: #1f77b4; stroke-width: 1.5"/>
    <path d="M 188.811493 287.83096 
L 188.811493 287.704831 
" clip-path="url(#p757a1cc952)" style="fill: none; stroke: #1f77b4; stroke-width: 1.5"/>
    <path d="M 195.581163 289.210952 
L 195.581163 289.107082 
" clip-path="url(#p757a1cc952)" style="fill: none; stroke: #1f77b4; stroke-width: 1.5"/>
    <path d="M 202.340612 290.336987 
L 202.340612 290.251279 
" clip-path="url(#p757a1cc952)" style="fill: none; stroke: #1f77b4; stroke-width: 1.5"/>
    <path d="M 209.106874 291.25219 
L 209.106874 291.181243 
" clip-path="url(#p757a1cc952)" style="fill: none; stroke: #1f77b4; stroke-width: 1.5"/>
    <path d="M 215.866323 291.999686 
L 215.866323 291.940795 
" clip-path="url(#p757a1cc952)" style="fill: none; stroke: #1f77b4; stroke-width: 1.5"/>
    <path d="M 222.632585 292.613016 
L 222.632585 292.564018 
" clip-path="url(#p757a1cc952)" style="fill: none; stroke: #1f77b4; stroke-width: 1.5"/>
    <path d="M 229.392034 293.116138 
L 229.392034 293.075255 
" clip-path="url(#p757a1cc952)" style="fill: none; stroke: #1f77b4; stroke-width: 1.5"/>
    <path d="M 236.161703 293.528219 
L 236.161703 293.493982 
" clip-path="url(#p757a1cc952)" style="fill: none; stroke: #1f77b4; stroke-width: 1.5"/>
    <path d="M 242.924559 293.863634 
L 242.924559 293.834807 
" clip-path="url(#p757a1cc952)" style="fill: none; stroke: #1f77b4; stroke-width: 1.5"/>
    <path d="M 249.687415 294.141549 
L 249.687415 294.117205 
" clip-path="url(#p757a1cc952)" style="fill: none; stroke: #1f77b4; stroke-width: 1.5"/>
    <path d="M 256.45027 294.34759 
L 256.45027 294.326568 
" clip-path="url(#p757a1cc952)" style="fill: none; stroke: #1f77b4; stroke-width: 1.5"/>
    <path d="M 263.213126 294.52488 
L 263.213126 294.506719 
" clip-path="url(#p757a1cc952)" style="fill: none; stroke: #1f77b4; stroke-width: 1.5"/>
    <path d="M 269.975981 294.697379 
L 269.975981 294.682 
" clip-path="url(#p757a1cc952)" style="fill: none; stroke: #1f77b4; stroke-width: 1.5"/>
    <path d="M 276.738837 294.826754 
L 276.738837 294.813461 
" clip-path="url(#p757a1cc952)" style="fill: none; stroke: #1f77b4; stroke-width: 1.5"/>
    <path d="M 283.508507 294.913003 
L 283.508507 294.901101 
" clip-path="url(#p757a1cc952)" style="fill: none; stroke: #1f77b4; stroke-width: 1.5"/>
    <path d="M 290.271362 294.999253 
L 290.271362 294.988742 
" clip-path="url(#p757a1cc952)" style="fill: none; stroke: #1f77b4; stroke-width: 1.5"/>
    <path d="M 297.034218 295.104669 
L 297.034218 295.095858 
" clip-path="url(#p757a1cc952)" style="fill: none; stroke: #1f77b4; stroke-width: 1.5"/>
    <path d="M 303.797073 295.162168 
L 303.797073 295.154285 
" clip-path="url(#p757a1cc952)" style="fill: none; stroke: #1f77b4; stroke-width: 1.5"/>
    <path d="M 310.559929 295.210085 
L 310.559929 295.202975 
" clip-path="url(#p757a1cc952)" style="fill: none; stroke: #1f77b4; stroke-width: 1.5"/>
    <path d="M 317.322785 295.258001 
L 317.322785 295.251664 
" clip-path="url(#p757a1cc952)" style="fill: none; stroke: #1f77b4; stroke-width: 1.5"/>
    <path d="M 324.08564 295.291543 
L 324.08564 295.285746 
" clip-path="url(#p757a1cc952)" style="fill: none; stroke: #1f77b4; stroke-width: 1.5"/>
    <path d="M 330.85531 295.320293 
L 330.85531 295.31496 
" clip-path="url(#p757a1cc952)" style="fill: none; stroke: #1f77b4; stroke-width: 1.5"/>
    <path d="M 337.614758 295.349042 
L 337.614758 295.344174 
" clip-path="url(#p757a1cc952)" style="fill: none; stroke: #1f77b4; stroke-width: 1.5"/>
    <path d="M 344.381021 295.377792 
L 344.381021 295.373387 
" clip-path="url(#p757a1cc952)" style="fill: none; stroke: #1f77b4; stroke-width: 1.5"/>
    <path d="M 351.14047 295.396959 
L 351.14047 295.392863 
" clip-path="url(#p757a1cc952)" style="fill: none; stroke: #1f77b4; stroke-width: 1.5"/>
    <path d="M 357.906732 295.420917 
L 357.906732 295.417207 
" clip-path="url(#p757a1cc952)" style="fill: none; stroke: #1f77b4; stroke-width: 1.5"/>
    <path d="M 364.666181 295.435292 
L 364.666181 295.431814 
" clip-path="url(#p757a1cc952)" style="fill: none; stroke: #1f77b4; stroke-width: 1.5"/>
    <path d="M 371.43585 295.449667 
L 371.43585 295.446421 
" clip-path="url(#p757a1cc952)" style="fill: none; stroke: #1f77b4; stroke-width: 1.5"/>
    <path d="M 378.198706 295.45925 
L 378.198706 295.456159 
" clip-path="url(#p757a1cc952)" style="fill: none; stroke: #1f77b4; stroke-width: 1.5"/>
    <path d="M 384.961562 295.473625 
L 384.961562 295.470766 
" clip-path="url(#p757a1cc952)" style="fill: none; stroke: #1f77b4; stroke-width: 1.5"/>
    <path d="M 391.724417 295.478417 
L 391.724417 295.475634 
" clip-path="url(#p757a1cc952)" style="fill: none; stroke: #1f77b4; stroke-width: 1.5"/>
    <path d="M 398.487273 295.488 
L 398.487273 295.485372 
" clip-path="url(#p757a1cc952)" style="fill: none; stroke: #1f77b4; stroke-width: 1.5"/>
   </g>
   <g id="line2d_13">
    <defs>
     <path id="m39401c0bba" d="M 3 0 
L -3 -0 
" style="stroke: #1f77b4"/>
    </defs>
    <g clip-path="url(#p757a1cc952)">
     <use xlink:href="#m39401c0bba" x="73.832727" y="55.489293" style="fill: #1f77b4; stroke: #1f77b4"/>
     <use xlink:href="#m39401c0bba" x="80.592176" y="95.918754" style="fill: #1f77b4; stroke: #1f77b4"/>
     <use xlink:href="#m39401c0bba" x="87.358438" y="130.841693" style="fill: #1f77b4; stroke: #1f77b4"/>
     <use xlink:href="#m39401c0bba" x="94.117887" y="162.335132" style="fill: #1f77b4; stroke: #1f77b4"/>
     <use xlink:href="#m39401c0bba" x="100.88415" y="187.694112" style="fill: #1f77b4; stroke: #1f77b4"/>
     <use xlink:href="#m39401c0bba" x="107.650412" y="208.174508" style="fill: #1f77b4; stroke: #1f77b4"/>
     <use xlink:href="#m39401c0bba" x="114.413268" y="224.694073" style="fill: #1f77b4; stroke: #1f77b4"/>
     <use xlink:href="#m39401c0bba" x="121.176123" y="238.025651" style="fill: #1f77b4; stroke: #1f77b4"/>
     <use xlink:href="#m39401c0bba" x="127.938979" y="248.845483" style="fill: #1f77b4; stroke: #1f77b4"/>
     <use xlink:href="#m39401c0bba" x="134.701835" y="257.733202" style="fill: #1f77b4; stroke: #1f77b4"/>
     <use xlink:href="#m39401c0bba" x="141.46469" y="264.012568" style="fill: #1f77b4; stroke: #1f77b4"/>
     <use xlink:href="#m39401c0bba" x="148.23436" y="270.002118" style="fill: #1f77b4; stroke: #1f77b4"/>
     <use xlink:href="#m39401c0bba" x="154.997215" y="274.721304" style="fill: #1f77b4; stroke: #1f77b4"/>
     <use xlink:href="#m39401c0bba" x="161.760071" y="278.551717" style="fill: #1f77b4; stroke: #1f77b4"/>
     <use xlink:href="#m39401c0bba" x="168.522927" y="281.382263" style="fill: #1f77b4; stroke: #1f77b4"/>
     <use xlink:href="#m39401c0bba" x="175.285782" y="284.193487" style="fill: #1f77b4; stroke: #1f77b4"/>
     <use xlink:href="#m39401c0bba" x="182.048638" y="286.246357" style="fill: #1f77b4; stroke: #1f77b4"/>
     <use xlink:href="#m39401c0bba" x="188.811493" y="287.767895" style="fill: #1f77b4; stroke: #1f77b4"/>
     <use xlink:href="#m39401c0bba" x="195.581163" y="289.159017" style="fill: #1f77b4; stroke: #1f77b4"/>
     <use xlink:href="#m39401c0bba" x="202.340612" y="290.294133" style="fill: #1f77b4; stroke: #1f77b4"/>
     <use xlink:href="#m39401c0bba" x="209.106874" y="291.216717" style="fill: #1f77b4; stroke: #1f77b4"/>
     <use xlink:href="#m39401c0bba" x="215.866323" y="291.970241" style="fill: #1f77b4; stroke: #1f77b4"/>
     <use xlink:href="#m39401c0bba" x="222.632585" y="292.588517" style="fill: #1f77b4; stroke: #1f77b4"/>
     <use xlink:href="#m39401c0bba" x="229.392034" y="293.095697" style="fill: #1f77b4; stroke: #1f77b4"/>
     <use xlink:href="#m39401c0bba" x="236.161703" y="293.511101" style="fill: #1f77b4; stroke: #1f77b4"/>
     <use xlink:href="#m39401c0bba" x="242.924559" y="293.849221" style="fill: #1f77b4; stroke: #1f77b4"/>
     <use xlink:href="#m39401c0bba" x="249.687415" y="294.129377" style="fill: #1f77b4; stroke: #1f77b4"/>
     <use xlink:href="#m39401c0bba" x="256.45027" y="294.337079" style="fill: #1f77b4; stroke: #1f77b4"/>
     <use xlink:href="#m39401c0bba" x="263.213126" y="294.515799" style="fill: #1f77b4; stroke: #1f77b4"/>
     <use xlink:href="#m39401c0bba" x="269.975981" y="294.68969" style="fill: #1f77b4; stroke: #1f77b4"/>
     <use xlink:href="#m39401c0bba" x="276.738837" y="294.820107" style="fill: #1f77b4; stroke: #1f77b4"/>
     <use xlink:href="#m39401c0bba" x="283.508507" y="294.907052" style="fill: #1f77b4; stroke: #1f77b4"/>
     <use xlink:href="#m39401c0bba" x="290.271362" y="294.993997" style="fill: #1f77b4; stroke: #1f77b4"/>
     <use xlink:href="#m39401c0bba" x="297.034218" y="295.100264" style="fill: #1f77b4; stroke: #1f77b4"/>
     <use xlink:href="#m39401c0bba" x="303.797073" y="295.158227" style="fill: #1f77b4; stroke: #1f77b4"/>
     <use xlink:href="#m39401c0bba" x="310.559929" y="295.20653" style="fill: #1f77b4; stroke: #1f77b4"/>
     <use xlink:href="#m39401c0bba" x="317.322785" y="295.254833" style="fill: #1f77b4; stroke: #1f77b4"/>
     <use xlink:href="#m39401c0bba" x="324.08564" y="295.288645" style="fill: #1f77b4; stroke: #1f77b4"/>
     <use xlink:href="#m39401c0bba" x="330.85531" y="295.317626" style="fill: #1f77b4; stroke: #1f77b4"/>
     <use xlink:href="#m39401c0bba" x="337.614758" y="295.346608" style="fill: #1f77b4; stroke: #1f77b4"/>
     <use xlink:href="#m39401c0bba" x="344.381021" y="295.37559" style="fill: #1f77b4; stroke: #1f77b4"/>
     <use xlink:href="#m39401c0bba" x="351.14047" y="295.394911" style="fill: #1f77b4; stroke: #1f77b4"/>
     <use xlink:href="#m39401c0bba" x="357.906732" y="295.419062" style="fill: #1f77b4; stroke: #1f77b4"/>
     <use xlink:href="#m39401c0bba" x="364.666181" y="295.433553" style="fill: #1f77b4; stroke: #1f77b4"/>
     <use xlink:href="#m39401c0bba" x="371.43585" y="295.448044" style="fill: #1f77b4; stroke: #1f77b4"/>
     <use xlink:href="#m39401c0bba" x="378.198706" y="295.457704" style="fill: #1f77b4; stroke: #1f77b4"/>
     <use xlink:href="#m39401c0bba" x="384.961562" y="295.472195" style="fill: #1f77b4; stroke: #1f77b4"/>
     <use xlink:href="#m39401c0bba" x="391.724417" y="295.477026" style="fill: #1f77b4; stroke: #1f77b4"/>
     <use xlink:href="#m39401c0bba" x="398.487273" y="295.486686" style="fill: #1f77b4; stroke: #1f77b4"/>
    </g>
   </g>
   <g id="patch_3">
    <path d="M 57.6 307.584 
L 57.6 41.472 
" style="fill: none; stroke: #000000; stroke-width: 0.8; stroke-linejoin: miter; stroke-linecap: square"/>
   </g>
   <g id="patch_4">
    <path d="M 414.72 307.584 
L 414.72 41.472 
" style="fill: none; stroke: #000000; stroke-width: 0.8; stroke-linejoin: miter; stroke-linecap: square"/>
   </g>
   <g id="patch_5">
    <path d="M 57.6 307.584 
L 414.72 307.584 
" style="fill: none; stroke: #000000; stroke-width: 0.8; stroke-linejoin: miter; stroke-linecap: square"/>
   </g>
   <g id="patch_6">
    <path d="M 57.6 41.472 
L 414.72 41.472 
" style="fill: none; stroke: #000000; stroke-width: 0.8; stroke-linejoin: miter; stroke-linecap: square"/>
   </g>
  </g>
 </g>
 <defs>
  <clipPath id="p757a1cc952">
   <rect x="57.6" y="41.472" width="357.12" height="266.112"/>
  </clipPath>
 </defs>
</svg>
