<?xml version="1.0" encoding="utf-8" standalone="no"?>
<!DOCTYPE svg PUBLIC "-//W3C//DTD SVG 1.1//EN"
  "http://www.w3.org/Graphics/SVG/1.1/DTD/svg11.dtd">
<svg xmlns:xlink="http://www.w3.org/1999/xlink" width="720pt" height="432pt" viewBox="0 0 720 432" xmlns="http://www.w3.org/2000/svg" version="1.1">
 <metadata>
  <rdf:RDF xmlns:dc="http://purl.org/dc/elements/1.1/" xmlns:cc="http://creativecommons.org/ns#" xmlns:rdf="http://www.w3.org/1999/02/22-rdf-syntax-ns#">
   <cc:Work>
    <dc:type rdf:resource="http://purl.org/dc/dcmitype/StillImage"/>
    <dc:date>2025-10-21T04:39:01.688253</dc:date>
    <dc:format>image/svg+xml</dc:format>
    <dc:creator>
     <cc:Agent>
      <dc:title>Matplotlib v3.10.0, https://matplotlib.org/</dc:title>
     </cc:Agent>
    </dc:creator>
   </cc:Work>
  </rdf:RDF>
 </metadata>
 <defs>
  <style type="text/css">*{stroke-linejoin: round; stroke-linecap: butt}</style>
 </defs>
 <g id="figure_1">
  <g id="patch_1">
   <path d="M 0 432 
L 720 432 
L 720 0 
L 0 0 
z
" style="fill: #ffffff"/>
  </g>
  <g id="axes_1">
   <g id="patch_2">
    <path d="M 90 384.48 
L 648 384.48 
L 648 51.84 
L 90 51.84 
z
" style="fill: #ffffff"/>
   </g>
   <g id="matplotlib.axis_1">
    <g id="xtick_1">
     <g id="line2d_1">
      <path d="M 115.363636 384.48 
L 115.363636 51.84 
" clip-path="url(#p0b8a4c6c6f)" style="fill: none; stroke: #b0b0b0; stroke-width: 0.8; stroke-linecap: square"/>
     </g>
     <g id="line2d_2">
      <defs>
       <path id="me08cfbf308" d="M 0 0 
L 0 3.5 
" style="stroke: #000000; stroke-width: 0.8"/>
      </defs>
      <g>
       <use xlink:href="#me08cfbf308" x="115.363636" y="384.48" style="stroke: #000000; stroke-width: 0.8"/>
      </g>
     </g>
     <g id="text_1">
      <!-- −2.0 -->
      <g transform="translate(103.22223 399.078438) scale(0.1 -0.1)">
       <defs>
        <path id="DejaVuSans-2212" d="M 678 2272 
L 4684 2272 
L 4684 1741 
L 678 1741 
L 678 2272 
z
" transform="scale(0.015625)"/>
        <path id="DejaVuSans-32" d="M 1228 531 
L 3431 531 
L 3431 0 
L 469 0 
L 469 531 
Q 828 903 1448 1529 
Q 2069 2156 2228 2338 
Q 2531 2678 2651 2914 
Q 2772 3150 2772 3378 
Q 2772 3750 2511 3984 
Q 2250 4219 1831 4219 
Q 1534 4219 1204 4116 
Q 875 4013 500 3803 
L 500 4441 
Q 881 4594 1212 4672 
Q 1544 4750 1819 4750 
Q 2544 4750 2975 4387 
Q 3406 4025 3406 3419 
Q 3406 3131 3298 2873 
Q 3191 2616 2906 2266 
Q 2828 2175 2409 1742 
Q 1991 1309 1228 531 
z
" transform="scale(0.015625)"/>
        <path id="DejaVuSans-2e" d="M 684 794 
L 1344 794 
L 1344 0 
L 684 0 
L 684 794 
z
" transform="scale(0.015625)"/>
        <path id="DejaVuSans-30" d="M 2034 4250 
Q 1547 4250 1301 3770 
Q 1056 3291 1056 2328 
Q 1056 1369 1301 889 
Q 1547 409 2034 409 
Q 2525 409 2770 889 
Q 3016 1369 3016 2328 
Q 3016 3291 2770 3770 
Q 2525 4250 2034 4250 
z
M 2034 4750 
Q 2819 4750 3233 4129 
Q 3647 3509 3647 2328 
Q 3647 1150 3233 529 
Q 2819 -91 2034 -91 
Q 1250 -91 836 529 
Q 422 1150 422 2328 
Q 422 3509 836 4129 
Q 1250 4750 2034 4750 
z
" transform="scale(0.015625)"/>
       </defs>
       <use xlink:href="#DejaVuSans-2212"/>
       <use xlink:href="#DejaVuSans-32" transform="translate(83.789062 0)"/>
       <use xlink:href="#DejaVuSans-2e" transform="translate(147.412109 0)"/>
       <use xlink:href="#DejaVuSans-30" transform="translate(179.199219 0)"/>
      </g>
     </g>
    </g>
    <g id="xtick_2">
     <g id="line2d_3">
      <path d="M 178.772727 384.48 
L 178.772727 51.84 
" clip-path="url(#p0b8a4c6c6f)" style="fill: none; stroke: #b0b0b0; stroke-width: 0.8; stroke-linecap: square"/>
     </g>
     <g id="line2d_4">
      <g>
       <use xlink:href="#me08cfbf308" x="178.772727" y="384.48" style="stroke: #000000; stroke-width: 0.8"/>
      </g>
     </g>
     <g id="text_2">
      <!-- −1.5 -->
      <g transform="translate(166.631321 399.078438) scale(0.1 -0.1)">
       <defs>
        <path id="DejaVuSans-31" d="M 794 531 
L 1825 531 
L 1825 4091 
L 703 3866 
L 703 4441 
L 1819 4666 
L 2450 4666 
L 2450 531 
L 3481 531 
L 3481 0 
L 794 0 
L 794 531 
z
" transform="scale(0.015625)"/>
        <path id="DejaVuSans-35" d="M 691 4666 
L 3169 4666 
L 3169 4134 
L 1269 4134 
L 1269 2991 
Q 1406 3038 1543 3061 
Q 1681 3084 1819 3084 
Q 2600 3084 3056 2656 
Q 3513 2228 3513 1497 
Q 3513 744 3044 326 
Q 2575 -91 1722 -91 
Q 1428 -91 1123 -41 
Q 819 9 494 109 
L 494 744 
Q 775 591 1075 516 
Q 1375 441 1709 441 
Q 2250 441 2565 725 
Q 2881 1009 2881 1497 
Q 2881 1984 2565 2268 
Q 2250 2553 1709 2553 
Q 1456 2553 1204 2497 
Q 953 2441 691 2322 
L 691 4666 
z
" transform="scale(0.015625)"/>
       </defs>
       <use xlink:href="#DejaVuSans-2212"/>
       <use xlink:href="#DejaVuSans-31" transform="translate(83.789062 0)"/>
       <use xlink:href="#DejaVuSans-2e" transform="translate(147.412109 0)"/>
       <use xlink:href="#DejaVuSans-35" transform="translate(179.199219 0)"/>
      </g>
     </g>
    </g>
    <g id="xtick_3">
     <g id="line2d_5">
      <path d="M 242.181818 384.48 
L 242.181818 51.84 
" clip-path="url(#p0b8a4c6c6f)" style="fill: none; stroke: #b0b0b0; stroke-width: 0.8; stroke-linecap: square"/>
     </g>
     <g id="line2d_6">
      <g>
       <use xlink:href="#me08cfbf308" x="242.181818" y="384.48" style="stroke: #000000; stroke-width: 0.8"/>
      </g>
     </g>
     <g id="text_3">
      <!-- −1.0 -->
      <g transform="translate(230.040412 399.078438) scale(0.1 -0.1)">
       <use xlink:href="#DejaVuSans-2212"/>
       <use xlink:href="#DejaVuSans-31" transform="translate(83.789062 0)"/>
       <use xlink:href="#DejaVuSans-2e" transform="translate(147.412109 0)"/>
       <use xlink:href="#DejaVuSans-30" transform="translate(179.199219 0)"/>
      </g>
     </g>
    </g>
    <g id="xtick_4">
     <g id="line2d_7">
      <path d="M 305.590909 384.48 
L 305.590909 51.84 
" clip-path="url(#p0b8a4c6c6f)" style="fill: none; stroke: #b0b0b0; stroke-width: 0.8; stroke-linecap: square"/>
     </g>
     <g id="line2d_8">
      <g>
       <use xlink:href="#me08cfbf308" x="305.590909" y="384.48" style="stroke: #000000; stroke-width: 0.8"/>
      </g>
     </g>
     <g id="text_4">
      <!-- −0.5 -->
      <g transform="translate(293.449503 399.078438) scale(0.1 -0.1)">
       <use xlink:href="#DejaVuSans-2212"/>
       <use xlink:href="#DejaVuSans-30" transform="translate(83.789062 0)"/>
       <use xlink:href="#DejaVuSans-2e" transform="translate(147.412109 0)"/>
       <use xlink:href="#DejaVuSans-35" transform="translate(179.199219 0)"/>
      </g>
     </g>
    </g>
    <g id="xtick_5">
     <g id="line2d_9">
      <path d="M 369 384.48 
L 369 51.84 
" clip-path="url(#p0b8a4c6c6f)" style="fill: none; stroke: #b0b0b0; stroke-width: 0.8; stroke-linecap: square"/>
     </g>
     <g id="line2d_10">
      <g>
       <use xlink:href="#me08cfbf308" x="369" y="384.48" style="stroke: #000000; stroke-width: 0.8"/>
      </g>
     </g>
     <g id="text_5">
      <!-- 0.0 -->
      <g transform="translate(361.048437 399.078438) scale(0.1 -0.1)">
       <use xlink:href="#DejaVuSans-30"/>
       <use xlink:href="#DejaVuSans-2e" transform="translate(63.623047 0)"/>
       <use xlink:href="#DejaVuSans-30" transform="translate(95.410156 0)"/>
      </g>
     </g>
    </g>
    <g id="xtick_6">
     <g id="line2d_11">
      <path d="M 432.409091 384.48 
L 432.409091 51.84 
" clip-path="url(#p0b8a4c6c6f)" style="fill: none; stroke: #b0b0b0; stroke-width: 0.8; stroke-linecap: square"/>
     </g>
     <g id="line2d_12">
      <g>
       <use xlink:href="#me08cfbf308" x="432.409091" y="384.48" style="stroke: #000000; stroke-width: 0.8"/>
      </g>
     </g>
     <g id="text_6">
      <!-- 0.5 -->
      <g transform="translate(424.457528 399.078438) scale(0.1 -0.1)">
       <use xlink:href="#DejaVuSans-30"/>
       <use xlink:href="#DejaVuSans-2e" transform="translate(63.623047 0)"/>
       <use xlink:href="#DejaVuSans-35" transform="translate(95.410156 0)"/>
      </g>
     </g>
    </g>
    <g id="xtick_7">
     <g id="line2d_13">
      <path d="M 495.818182 384.48 
L 495.818182 51.84 
" clip-path="url(#p0b8a4c6c6f)" style="fill: none; stroke: #b0b0b0; stroke-width: 0.8; stroke-linecap: square"/>
     </g>
     <g id="line2d_14">
      <g>
       <use xlink:href="#me08cfbf308" x="495.818182" y="384.48" style="stroke: #000000; stroke-width: 0.8"/>
      </g>
     </g>
     <g id="text_7">
      <!-- 1.0 -->
      <g transform="translate(487.866619 399.078438) scale(0.1 -0.1)">
       <use xlink:href="#DejaVuSans-31"/>
       <use xlink:href="#DejaVuSans-2e" transform="translate(63.623047 0)"/>
       <use xlink:href="#DejaVuSans-30" transform="translate(95.410156 0)"/>
      </g>
     </g>
    </g>
    <g id="xtick_8">
     <g id="line2d_15">
      <path d="M 559.227273 384.48 
L 559.227273 51.84 
" clip-path="url(#p0b8a4c6c6f)" style="fill: none; stroke: #b0b0b0; stroke-width: 0.8; stroke-linecap: square"/>
     </g>
     <g id="line2d_16">
      <g>
       <use xlink:href="#me08cfbf308" x="559.227273" y="384.48" style="stroke: #000000; stroke-width: 0.8"/>
      </g>
     </g>
     <g id="text_8">
      <!-- 1.5 -->
      <g transform="translate(551.27571 399.078438) scale(0.1 -0.1)">
       <use xlink:href="#DejaVuSans-31"/>
       <use xlink:href="#DejaVuSans-2e" transform="translate(63.623047 0)"/>
       <use xlink:href="#DejaVuSans-35" transform="translate(95.410156 0)"/>
      </g>
     </g>
    </g>
    <g id="xtick_9">
     <g id="line2d_17">
      <path d="M 622.636364 384.48 
L 622.636364 51.84 
" clip-path="url(#p0b8a4c6c6f)" style="fill: none; stroke: #b0b0b0; stroke-width: 0.8; stroke-linecap: square"/>
     </g>
     <g id="line2d_18">
      <g>
       <use xlink:href="#me08cfbf308" x="622.636364" y="384.48" style="stroke: #000000; stroke-width: 0.8"/>
      </g>
     </g>
     <g id="text_9">
      <!-- 2.0 -->
      <g transform="translate(614.684801 399.078438) scale(0.1 -0.1)">
       <use xlink:href="#DejaVuSans-32"/>
       <use xlink:href="#DejaVuSans-2e" transform="translate(63.623047 0)"/>
       <use xlink:href="#DejaVuSans-30" transform="translate(95.410156 0)"/>
      </g>
     </g>
    </g>
    <g id="text_10">
     <!-- Current (A) -->
     <g transform="translate(341.3125 412.756563) scale(0.1 -0.1)">
      <defs>
       <path id="DejaVuSans-43" d="M 4122 4306 
L 4122 3641 
Q 3803 3938 3442 4084 
Q 3081 4231 2675 4231 
Q 1875 4231 1450 3742 
Q 1025 3253 1025 2328 
Q 1025 1406 1450 917 
Q 1875 428 2675 428 
Q 3081 428 3442 575 
Q 3803 722 4122 1019 
L 4122 359 
Q 3791 134 3420 21 
Q 3050 -91 2638 -91 
Q 1578 -91 968 557 
Q 359 1206 359 2328 
Q 359 3453 968 4101 
Q 1578 4750 2638 4750 
Q 3056 4750 3426 4639 
Q 3797 4528 4122 4306 
z
" transform="scale(0.015625)"/>
       <path id="DejaVuSans-75" d="M 544 1381 
L 544 3500 
L 1119 3500 
L 1119 1403 
Q 1119 906 1312 657 
Q 1506 409 1894 409 
Q 2359 409 2629 706 
Q 2900 1003 2900 1516 
L 2900 3500 
L 3475 3500 
L 3475 0 
L 2900 0 
L 2900 538 
Q 2691 219 2414 64 
Q 2138 -91 1772 -91 
Q 1169 -91 856 284 
Q 544 659 544 1381 
z
M 1991 3584 
L 1991 3584 
z
" transform="scale(0.015625)"/>
       <path id="DejaVuSans-72" d="M 2631 2963 
Q 2534 3019 2420 3045 
Q 2306 3072 2169 3072 
Q 1681 3072 1420 2755 
Q 1159 2438 1159 1844 
L 1159 0 
L 581 0 
L 581 3500 
L 1159 3500 
L 1159 2956 
Q 1341 3275 1631 3429 
Q 1922 3584 2338 3584 
Q 2397 3584 2469 3576 
Q 2541 3569 2628 3553 
L 2631 2963 
z
" transform="scale(0.015625)"/>
       <path id="DejaVuSans-65" d="M 3597 1894 
L 3597 1613 
L 953 1613 
Q 991 1019 1311 708 
Q 1631 397 2203 397 
Q 2534 397 2845 478 
Q 3156 559 3463 722 
L 3463 178 
Q 3153 47 2828 -22 
Q 2503 -91 2169 -91 
Q 1331 -91 842 396 
Q 353 884 353 1716 
Q 353 2575 817 3079 
Q 1281 3584 2069 3584 
Q 2775 3584 3186 3129 
Q 3597 2675 3597 1894 
z
M 3022 2063 
Q 3016 2534 2758 2815 
Q 2500 3097 2075 3097 
Q 1594 3097 1305 2825 
Q 1016 2553 972 2059 
L 3022 2063 
z
" transform="scale(0.015625)"/>
       <path id="DejaVuSans-6e" d="M 3513 2113 
L 3513 0 
L 2938 0 
L 2938 2094 
Q 2938 2591 2744 2837 
Q 2550 3084 2163 3084 
Q 1697 3084 1428 2787 
Q 1159 2491 1159 1978 
L 1159 0 
L 581 0 
L 581 3500 
L 1159 3500 
L 1159 2956 
Q 1366 3272 1645 3428 
Q 1925 3584 2291 3584 
Q 2894 3584 3203 3211 
Q 3513 2838 3513 2113 
z
" transform="scale(0.015625)"/>
       <path id="DejaVuSans-74" d="M 1172 4494 
L 1172 3500 
L 2356 3500 
L 2356 3053 
L 1172 3053 
L 1172 1153 
Q 1172 725 1289 603 
Q 1406 481 1766 481 
L 2356 481 
L 2356 0 
L 1766 0 
Q 1100 0 847 248 
Q 594 497 594 1153 
L 594 3053 
L 172 3053 
L 172 3500 
L 594 3500 
L 594 4494 
L 1172 4494 
z
" transform="scale(0.015625)"/>
       <path id="DejaVuSans-20" transform="scale(0.015625)"/>
       <path id="DejaVuSans-28" d="M 1984 4856 
Q 1566 4138 1362 3434 
Q 1159 2731 1159 2009 
Q 1159 1288 1364 580 
Q 1569 -128 1984 -844 
L 1484 -844 
Q 1016 -109 783 600 
Q 550 1309 550 2009 
Q 550 2706 781 3412 
Q 1013 4119 1484 4856 
L 1984 4856 
z
" transform="scale(0.015625)"/>
       <path id="DejaVuSans-41" d="M 2188 4044 
L 1331 1722 
L 3047 1722 
L 2188 4044 
z
M 1831 4666 
L 2547 4666 
L 4325 0 
L 3669 0 
L 3244 1197 
L 1141 1197 
L 716 0 
L 50 0 
L 1831 4666 
z
" transform="scale(0.015625)"/>
       <path id="DejaVuSans-29" d="M 513 4856 
L 1013 4856 
Q 1481 4119 1714 3412 
Q 1947 2706 1947 2009 
Q 1947 1309 1714 600 
Q 1481 -109 1013 -844 
L 513 -844 
Q 928 -128 1133 580 
Q 1338 1288 1338 2009 
Q 1338 2731 1133 3434 
Q 928 4138 513 4856 
z
" transform="scale(0.015625)"/>
      </defs>
      <use xlink:href="#DejaVuSans-43"/>
      <use xlink:href="#DejaVuSans-75" transform="translate(69.824219 0)"/>
      <use xlink:href="#DejaVuSans-72" transform="translate(133.203125 0)"/>
      <use xlink:href="#DejaVuSans-72" transform="translate(172.566406 0)"/>
      <use xlink:href="#DejaVuSans-65" transform="translate(211.429688 0)"/>
      <use xlink:href="#DejaVuSans-6e" transform="translate(272.953125 0)"/>
      <use xlink:href="#DejaVuSans-74" transform="translate(336.332031 0)"/>
      <use xlink:href="#DejaVuSans-20" transform="translate(375.541016 0)"/>
      <use xlink:href="#DejaVuSans-28" transform="translate(407.328125 0)"/>
      <use xlink:href="#DejaVuSans-41" transform="translate(446.341797 0)"/>
      <use xlink:href="#DejaVuSans-29" transform="translate(514.75 0)"/>
     </g>
    </g>
   </g>
   <g id="matplotlib.axis_2">
    <g id="ytick_1">
     <g id="line2d_19">
      <path d="M 90 350.009833 
L 648 350.009833 
" clip-path="url(#p0b8a4c6c6f)" style="fill: none; stroke: #b0b0b0; stroke-width: 0.8; stroke-linecap: square"/>
     </g>
     <g id="line2d_20">
      <defs>
       <path id="mc3e14b0af7" d="M 0 0 
L -3.5 0 
" style="stroke: #000000; stroke-width: 0.8"/>
      </defs>
      <g>
       <use xlink:href="#mc3e14b0af7" x="90" y="350.009833" style="stroke: #000000; stroke-width: 0.8"/>
      </g>
     </g>
     <g id="text_11">
      <!-- 150 -->
      <g transform="translate(63.9125 353.809051) scale(0.1 -0.1)">
       <use xlink:href="#DejaVuSans-31"/>
       <use xlink:href="#DejaVuSans-35" transform="translate(63.623047 0)"/>
       <use xlink:href="#DejaVuSans-30" transform="translate(127.246094 0)"/>
      </g>
     </g>
    </g>
    <g id="ytick_2">
     <g id="line2d_21">
      <path d="M 90 288.076547 
L 648 288.076547 
" clip-path="url(#p0b8a4c6c6f)" style="fill: none; stroke: #b0b0b0; stroke-width: 0.8; stroke-linecap: square"/>
     </g>
     <g id="line2d_22">
      <g>
       <use xlink:href="#mc3e14b0af7" x="90" y="288.076547" style="stroke: #000000; stroke-width: 0.8"/>
      </g>
     </g>
     <g id="text_12">
      <!-- 155 -->
      <g transform="translate(63.9125 291.875766) scale(0.1 -0.1)">
       <use xlink:href="#DejaVuSans-31"/>
       <use xlink:href="#DejaVuSans-35" transform="translate(63.623047 0)"/>
       <use xlink:href="#DejaVuSans-35" transform="translate(127.246094 0)"/>
      </g>
     </g>
    </g>
    <g id="ytick_3">
     <g id="line2d_23">
      <path d="M 90 226.143262 
L 648 226.143262 
" clip-path="url(#p0b8a4c6c6f)" style="fill: none; stroke: #b0b0b0; stroke-width: 0.8; stroke-linecap: square"/>
     </g>
     <g id="line2d_24">
      <g>
       <use xlink:href="#mc3e14b0af7" x="90" y="226.143262" style="stroke: #000000; stroke-width: 0.8"/>
      </g>
     </g>
     <g id="text_13">
      <!-- 160 -->
      <g transform="translate(63.9125 229.94248) scale(0.1 -0.1)">
       <defs>
        <path id="DejaVuSans-36" d="M 2113 2584 
Q 1688 2584 1439 2293 
Q 1191 2003 1191 1497 
Q 1191 994 1439 701 
Q 1688 409 2113 409 
Q 2538 409 2786 701 
Q 3034 994 3034 1497 
Q 3034 2003 2786 2293 
Q 2538 2584 2113 2584 
z
M 3366 4563 
L 3366 3988 
Q 3128 4100 2886 4159 
Q 2644 4219 2406 4219 
Q 1781 4219 1451 3797 
Q 1122 3375 1075 2522 
Q 1259 2794 1537 2939 
Q 1816 3084 2150 3084 
Q 2853 3084 3261 2657 
Q 3669 2231 3669 1497 
Q 3669 778 3244 343 
Q 2819 -91 2113 -91 
Q 1303 -91 875 529 
Q 447 1150 447 2328 
Q 447 3434 972 4092 
Q 1497 4750 2381 4750 
Q 2619 4750 2861 4703 
Q 3103 4656 3366 4563 
z
" transform="scale(0.015625)"/>
       </defs>
       <use xlink:href="#DejaVuSans-31"/>
       <use xlink:href="#DejaVuSans-36" transform="translate(63.623047 0)"/>
       <use xlink:href="#DejaVuSans-30" transform="translate(127.246094 0)"/>
      </g>
     </g>
    </g>
    <g id="ytick_4">
     <g id="line2d_25">
      <path d="M 90 164.209976 
L 648 164.209976 
" clip-path="url(#p0b8a4c6c6f)" style="fill: none; stroke: #b0b0b0; stroke-width: 0.8; stroke-linecap: square"/>
     </g>
     <g id="line2d_26">
      <g>
       <use xlink:href="#mc3e14b0af7" x="90" y="164.209976" style="stroke: #000000; stroke-width: 0.8"/>
      </g>
     </g>
     <g id="text_14">
      <!-- 165 -->
      <g transform="translate(63.9125 168.009195) scale(0.1 -0.1)">
       <use xlink:href="#DejaVuSans-31"/>
       <use xlink:href="#DejaVuSans-36" transform="translate(63.623047 0)"/>
       <use xlink:href="#DejaVuSans-35" transform="translate(127.246094 0)"/>
      </g>
     </g>
    </g>
    <g id="ytick_5">
     <g id="line2d_27">
      <path d="M 90 102.27669 
L 648 102.27669 
" clip-path="url(#p0b8a4c6c6f)" style="fill: none; stroke: #b0b0b0; stroke-width: 0.8; stroke-linecap: square"/>
     </g>
     <g id="line2d_28">
      <g>
       <use xlink:href="#mc3e14b0af7" x="90" y="102.27669" style="stroke: #000000; stroke-width: 0.8"/>
      </g>
     </g>
     <g id="text_15">
      <!-- 170 -->
      <g transform="translate(63.9125 106.075909) scale(0.1 -0.1)">
       <defs>
        <path id="DejaVuSans-37" d="M 525 4666 
L 3525 4666 
L 3525 4397 
L 1831 0 
L 1172 0 
L 2766 4134 
L 525 4134 
L 525 4666 
z
" transform="scale(0.015625)"/>
       </defs>
       <use xlink:href="#DejaVuSans-31"/>
       <use xlink:href="#DejaVuSans-37" transform="translate(63.623047 0)"/>
       <use xlink:href="#DejaVuSans-30" transform="translate(127.246094 0)"/>
      </g>
     </g>
    </g>
    <g id="text_16">
     <!-- Frequency (Hz) -->
     <g transform="translate(57.832812 255.864687) rotate(-90) scale(0.1 -0.1)">
      <defs>
       <path id="DejaVuSans-46" d="M 628 4666 
L 3309 4666 
L 3309 4134 
L 1259 4134 
L 1259 2759 
L 3109 2759 
L 3109 2228 
L 1259 2228 
L 1259 0 
L 628 0 
L 628 4666 
z
" transform="scale(0.015625)"/>
       <path id="DejaVuSans-71" d="M 947 1747 
Q 947 1113 1208 752 
Q 1469 391 1925 391 
Q 2381 391 2643 752 
Q 2906 1113 2906 1747 
Q 2906 2381 2643 2742 
Q 2381 3103 1925 3103 
Q 1469 3103 1208 2742 
Q 947 2381 947 1747 
z
M 2906 525 
Q 2725 213 2448 61 
Q 2172 -91 1784 -91 
Q 1150 -91 751 415 
Q 353 922 353 1747 
Q 353 2572 751 3078 
Q 1150 3584 1784 3584 
Q 2172 3584 2448 3432 
Q 2725 3281 2906 2969 
L 2906 3500 
L 3481 3500 
L 3481 -1331 
L 2906 -1331 
L 2906 525 
z
" transform="scale(0.015625)"/>
       <path id="DejaVuSans-63" d="M 3122 3366 
L 3122 2828 
Q 2878 2963 2633 3030 
Q 2388 3097 2138 3097 
Q 1578 3097 1268 2742 
Q 959 2388 959 1747 
Q 959 1106 1268 751 
Q 1578 397 2138 397 
Q 2388 397 2633 464 
Q 2878 531 3122 666 
L 3122 134 
Q 2881 22 2623 -34 
Q 2366 -91 2075 -91 
Q 1284 -91 818 406 
Q 353 903 353 1747 
Q 353 2603 823 3093 
Q 1294 3584 2113 3584 
Q 2378 3584 2631 3529 
Q 2884 3475 3122 3366 
z
" transform="scale(0.015625)"/>
       <path id="DejaVuSans-79" d="M 2059 -325 
Q 1816 -950 1584 -1140 
Q 1353 -1331 966 -1331 
L 506 -1331 
L 506 -850 
L 844 -850 
Q 1081 -850 1212 -737 
Q 1344 -625 1503 -206 
L 1606 56 
L 191 3500 
L 800 3500 
L 1894 763 
L 2988 3500 
L 3597 3500 
L 2059 -325 
z
" transform="scale(0.015625)"/>
       <path id="DejaVuSans-48" d="M 628 4666 
L 1259 4666 
L 1259 2753 
L 3553 2753 
L 3553 4666 
L 4184 4666 
L 4184 0 
L 3553 0 
L 3553 2222 
L 1259 2222 
L 1259 0 
L 628 0 
L 628 4666 
z
" transform="scale(0.015625)"/>
       <path id="DejaVuSans-7a" d="M 353 3500 
L 3084 3500 
L 3084 2975 
L 922 459 
L 3084 459 
L 3084 0 
L 275 0 
L 275 525 
L 2438 3041 
L 353 3041 
L 353 3500 
z
" transform="scale(0.015625)"/>
      </defs>
      <use xlink:href="#DejaVuSans-46"/>
      <use xlink:href="#DejaVuSans-72" transform="translate(50.269531 0)"/>
      <use xlink:href="#DejaVuSans-65" transform="translate(89.132812 0)"/>
      <use xlink:href="#DejaVuSans-71" transform="translate(150.65625 0)"/>
      <use xlink:href="#DejaVuSans-75" transform="translate(214.132812 0)"/>
      <use xlink:href="#DejaVuSans-65" transform="translate(277.511719 0)"/>
      <use xlink:href="#DejaVuSans-6e" transform="translate(339.035156 0)"/>
      <use xlink:href="#DejaVuSans-63" transform="translate(402.414062 0)"/>
      <use xlink:href="#DejaVuSans-79" transform="translate(457.394531 0)"/>
      <use xlink:href="#DejaVuSans-20" transform="translate(516.574219 0)"/>
      <use xlink:href="#DejaVuSans-28" transform="translate(548.361328 0)"/>
      <use xlink:href="#DejaVuSans-48" transform="translate(587.375 0)"/>
      <use xlink:href="#DejaVuSans-7a" transform="translate(662.570312 0)"/>
      <use xlink:href="#DejaVuSans-29" transform="translate(715.060547 0)"/>
     </g>
    </g>
   </g>
   <g id="line2d_29">
    <path d="M 115.363636 352.168532 
L 140.727273 337.872976 
L 166.090909 323.68587 
L 191.454545 309.604784 
L 216.818182 295.627376 
L 242.181818 281.751389 
L 267.545455 267.974647 
L 292.909091 254.29505 
L 318.272727 240.710572 
L 343.636364 227.219255 
L 369 213.81921 
L 394.363636 200.508607 
L 419.727273 187.28568 
L 445.090909 174.148719 
L 470.454545 161.096069 
L 495.818182 148.126126 
L 521.181818 135.237338 
L 546.545455 122.428201 
L 571.909091 109.697256 
L 597.272727 97.043088 
L 622.636364 84.464325 
" clip-path="url(#p0b8a4c6c6f)" style="fill: none; stroke-dasharray: 5.55,2.4; stroke-dashoffset: 0; stroke: #000000; stroke-width: 1.5"/>
   </g>
   <g id="line2d_30">
    <path d="M 115.363636 84.464325 
L 140.727273 97.043088 
L 166.090909 109.697256 
L 191.454545 122.428201 
L 216.818182 135.237338 
L 242.181818 148.126126 
L 267.545455 161.096069 
L 292.909091 174.148719 
L 318.272727 187.28568 
L 343.636364 200.508607 
L 369 213.81921 
L 394.363636 227.219255 
L 419.727273 240.710572 
L 445.090909 254.29505 
L 470.454545 267.974647 
L 495.818182 281.751389 
L 521.181818 295.627376 
L 546.545455 309.604784 
L 571.909091 323.68587 
L 597.272727 337.872976 
L 622.636364 352.168532 
" clip-path="url(#p0b8a4c6c6f)" style="fill: none; stroke-dasharray: 5.55,2.4; stroke-dashoffset: 0; stroke: #808080; stroke-width: 1.5"/>
   </g>
   <g id="LineCollection_1">
    <path d="M 115.363636 327.022422 
L 115.363636 320.983192 
" clip-path="url(#p0b8a4c6c6f)" style="fill: none; stroke: #ffa500; stroke-width: 1.5"/>
    <path d="M 140.727273 320.369551 
L 140.727273 314.330316 
" clip-path="url(#p0b8a4c6c6f)" style="fill: none; stroke: #ffa500; stroke-width: 1.5"/>
    <path d="M 166.090909 313.71668 
L 166.090909 307.67744 
" clip-path="url(#p0b8a4c6c6f)" style="fill: none; stroke: #ffa500; stroke-width: 1.5"/>
    <path d="M 191.454545 307.062571 
L 191.454545 301.023325 
" clip-path="url(#p0b8a4c6c6f)" style="fill: none; stroke: #ffa500; stroke-width: 1.5"/>
    <path d="M 216.818182 300.4097 
L 216.818182 294.370449 
" clip-path="url(#p0b8a4c6c6f)" style="fill: none; stroke: #ffa500; stroke-width: 1.5"/>
    <path d="M 242.181818 293.756829 
L 242.181818 287.717573 
" clip-path="url(#p0b8a4c6c6f)" style="fill: none; stroke: #ffa500; stroke-width: 1.5"/>
    <path d="M 267.545455 293.157315 
L 267.545455 287.118058 
" clip-path="url(#p0b8a4c6c6f)" style="fill: none; stroke: #ffa500; stroke-width: 1.5"/>
    <path d="M 292.909091 292.557801 
L 292.909091 286.518544 
" clip-path="url(#p0b8a4c6c6f)" style="fill: none; stroke: #ffa500; stroke-width: 1.5"/>
    <path d="M 318.272727 291.957049 
L 318.272727 285.917791 
" clip-path="url(#p0b8a4c6c6f)" style="fill: none; stroke: #ffa500; stroke-width: 1.5"/>
    <path d="M 343.636364 291.357535 
L 343.636364 285.318276 
" clip-path="url(#p0b8a4c6c6f)" style="fill: none; stroke: #ffa500; stroke-width: 1.5"/>
    <path d="M 369 293.756829 
L 369 287.717573 
" clip-path="url(#p0b8a4c6c6f)" style="fill: none; stroke: #ffa500; stroke-width: 1.5"/>
    <path d="M 394.363636 296.78165 
L 394.363636 290.742396 
" clip-path="url(#p0b8a4c6c6f)" style="fill: none; stroke: #ffa500; stroke-width: 1.5"/>
    <path d="M 419.727273 302.953918 
L 419.727273 296.914669 
" clip-path="url(#p0b8a4c6c6f)" style="fill: none; stroke: #ffa500; stroke-width: 1.5"/>
    <path d="M 445.090909 308.877215 
L 445.090909 302.837971 
" clip-path="url(#p0b8a4c6c6f)" style="fill: none; stroke: #ffa500; stroke-width: 1.5"/>
    <path d="M 470.454545 314.925618 
L 470.454545 308.886378 
" clip-path="url(#p0b8a4c6c6f)" style="fill: none; stroke: #ffa500; stroke-width: 1.5"/>
    <path d="M 495.818182 323.997602 
L 495.818182 317.958369 
" clip-path="url(#p0b8a4c6c6f)" style="fill: none; stroke: #ffa500; stroke-width: 1.5"/>
    <path d="M 521.181818 330.046004 
L 521.181818 324.006776 
" clip-path="url(#p0b8a4c6c6f)" style="fill: none; stroke: #ffa500; stroke-width: 1.5"/>
    <path d="M 546.545455 339.119227 
L 546.545455 333.080006 
" clip-path="url(#p0b8a4c6c6f)" style="fill: none; stroke: #ffa500; stroke-width: 1.5"/>
    <path d="M 571.909091 348.191211 
L 571.909091 342.151997 
" clip-path="url(#p0b8a4c6c6f)" style="fill: none; stroke: #ffa500; stroke-width: 1.5"/>
    <path d="M 597.272727 357.263195 
L 597.272727 351.223989 
" clip-path="url(#p0b8a4c6c6f)" style="fill: none; stroke: #ffa500; stroke-width: 1.5"/>
    <path d="M 622.636364 369.36 
L 622.636364 363.320803 
" clip-path="url(#p0b8a4c6c6f)" style="fill: none; stroke: #ffa500; stroke-width: 1.5"/>
   </g>
   <g id="line2d_31">
    <defs>
     <path id="m4b2b599eb7" d="M 3 0 
L -3 -0 
" style="stroke: #ffa500"/>
    </defs>
    <g clip-path="url(#p0b8a4c6c6f)">
     <use xlink:href="#m4b2b599eb7" x="115.363636" y="327.022422" style="fill: #ffa500; stroke: #ffa500"/>
     <use xlink:href="#m4b2b599eb7" x="140.727273" y="320.369551" style="fill: #ffa500; stroke: #ffa500"/>
     <use xlink:href="#m4b2b599eb7" x="166.090909" y="313.71668" style="fill: #ffa500; stroke: #ffa500"/>
     <use xlink:href="#m4b2b599eb7" x="191.454545" y="307.062571" style="fill: #ffa500; stroke: #ffa500"/>
     <use xlink:href="#m4b2b599eb7" x="216.818182" y="300.4097" style="fill: #ffa500; stroke: #ffa500"/>
     <use xlink:href="#m4b2b599eb7" x="242.181818" y="293.756829" style="fill: #ffa500; stroke: #ffa500"/>
     <use xlink:href="#m4b2b599eb7" x="267.545455" y="293.157315" style="fill: #ffa500; stroke: #ffa500"/>
     <use xlink:href="#m4b2b599eb7" x="292.909091" y="292.557801" style="fill: #ffa500; stroke: #ffa500"/>
     <use xlink:href="#m4b2b599eb7" x="318.272727" y="291.957049" style="fill: #ffa500; stroke: #ffa500"/>
     <use xlink:href="#m4b2b599eb7" x="343.636364" y="291.357535" style="fill: #ffa500; stroke: #ffa500"/>
     <use xlink:href="#m4b2b599eb7" x="369" y="293.756829" style="fill: #ffa500; stroke: #ffa500"/>
     <use xlink:href="#m4b2b599eb7" x="394.363636" y="296.78165" style="fill: #ffa500; stroke: #ffa500"/>
     <use xlink:href="#m4b2b599eb7" x="419.727273" y="302.953918" style="fill: #ffa500; stroke: #ffa500"/>
     <use xlink:href="#m4b2b599eb7" x="445.090909" y="308.877215" style="fill: #ffa500; stroke: #ffa500"/>
     <use xlink:href="#m4b2b599eb7" x="470.454545" y="314.925618" style="fill: #ffa500; stroke: #ffa500"/>
     <use xlink:href="#m4b2b599eb7" x="495.818182" y="323.997602" style="fill: #ffa500; stroke: #ffa500"/>
     <use xlink:href="#m4b2b599eb7" x="521.181818" y="330.046004" style="fill: #ffa500; stroke: #ffa500"/>
     <use xlink:href="#m4b2b599eb7" x="546.545455" y="339.119227" style="fill: #ffa500; stroke: #ffa500"/>
     <use xlink:href="#m4b2b599eb7" x="571.909091" y="348.191211" style="fill: #ffa500; stroke: #ffa500"/>
     <use xlink:href="#m4b2b599eb7" x="597.272727" y="357.263195" style="fill: #ffa500; stroke: #ffa500"/>
     <use xlink:href="#m4b2b599eb7" x="622.636364" y="369.36" style="fill: #ffa500; stroke: #ffa500"/>
    </g>
   </g>
   <g id="line2d_32">
    <g clip-path="url(#p0b8a4c6c6f)">
     <use xlink:href="#m4b2b599eb7" x="115.363636" y="320.983192" style="fill: #ffa500; stroke: #ffa500"/>
     <use xlink:href="#m4b2b599eb7" x="140.727273" y="314.330316" style="fill: #ffa500; stroke: #ffa500"/>
     <use xlink:href="#m4b2b599eb7" x="166.090909" y="307.67744" style="fill: #ffa500; stroke: #ffa500"/>
     <use xlink:href="#m4b2b599eb7" x="191.454545" y="301.023325" style="fill: #ffa500; stroke: #ffa500"/>
     <use xlink:href="#m4b2b599eb7" x="216.818182" y="294.370449" style="fill: #ffa500; stroke: #ffa500"/>
     <use xlink:href="#m4b2b599eb7" x="242.181818" y="287.717573" style="fill: #ffa500; stroke: #ffa500"/>
     <use xlink:href="#m4b2b599eb7" x="267.545455" y="287.118058" style="fill: #ffa500; stroke: #ffa500"/>
     <use xlink:href="#m4b2b599eb7" x="292.909091" y="286.518544" style="fill: #ffa500; stroke: #ffa500"/>
     <use xlink:href="#m4b2b599eb7" x="318.272727" y="285.917791" style="fill: #ffa500; stroke: #ffa500"/>
     <use xlink:href="#m4b2b599eb7" x="343.636364" y="285.318276" style="fill: #ffa500; stroke: #ffa500"/>
     <use xlink:href="#m4b2b599eb7" x="369" y="287.717573" style="fill: #ffa500; stroke: #ffa500"/>
     <use xlink:href="#m4b2b599eb7" x="394.363636" y="290.742396" style="fill: #ffa500; stroke: #ffa500"/>
     <use xlink:href="#m4b2b599eb7" x="419.727273" y="296.914669" style="fill: #ffa500; stroke: #ffa500"/>
     <use xlink:href="#m4b2b599eb7" x="445.090909" y="302.837971" style="fill: #ffa500; stroke: #ffa500"/>
     <use xlink:href="#m4b2b599eb7" x="470.454545" y="308.886378" style="fill: #ffa500; stroke: #ffa500"/>
     <use xlink:href="#m4b2b599eb7" x="495.818182" y="317.958369" style="fill: #ffa500; stroke: #ffa500"/>
     <use xlink:href="#m4b2b599eb7" x="521.181818" y="324.006776" style="fill: #ffa500; stroke: #ffa500"/>
     <use xlink:href="#m4b2b599eb7" x="546.545455" y="333.080006" style="fill: #ffa500; stroke: #ffa500"/>
     <use xlink:href="#m4b2b599eb7" x="571.909091" y="342.151997" style="fill: #ffa500; stroke: #ffa500"/>
     <use xlink:href="#m4b2b599eb7" x="597.272727" y="351.223989" style="fill: #ffa500; stroke: #ffa500"/>
     <use xlink:href="#m4b2b599eb7" x="622.636364" y="363.320803" style="fill: #ffa500; stroke: #ffa500"/>
    </g>
   </g>
   <g id="line2d_33">
    <path d="M 115.363636 366.229324 
L 140.727273 353.223032 
L 166.090909 340.595065 
L 191.454545 328.428642 
L 216.818182 316.842865 
L 242.181818 306.009586 
L 267.545455 296.176439 
L 292.909091 287.692623 
L 318.272727 281.021254 
L 343.636364 276.69866 
L 369 275.193634 
L 394.363636 276.69866 
L 419.727273 281.021254 
L 445.090909 287.692623 
L 470.454545 296.176439 
L 495.818182 306.009586 
L 521.181818 316.842865 
L 546.545455 328.428642 
L 571.909091 340.595065 
L 597.272727 353.223032 
L 622.636364 366.229324 
" clip-path="url(#p0b8a4c6c6f)" style="fill: none; stroke: #ff0000; stroke-width: 1.5; stroke-linecap: square"/>
   </g>
   <g id="LineCollection_2">
    <path d="M 115.363636 100.215393 
L 115.363636 94.175975 
" clip-path="url(#p0b8a4c6c6f)" style="fill: none; stroke: #008080; stroke-width: 1.5"/>
    <path d="M 140.727273 106.263795 
L 140.727273 100.224382 
" clip-path="url(#p0b8a4c6c6f)" style="fill: none; stroke: #008080; stroke-width: 1.5"/>
    <path d="M 166.090909 112.312197 
L 166.090909 106.27279 
" clip-path="url(#p0b8a4c6c6f)" style="fill: none; stroke: #008080; stroke-width: 1.5"/>
    <path d="M 191.454545 118.35936 
L 191.454545 112.319958 
" clip-path="url(#p0b8a4c6c6f)" style="fill: none; stroke: #008080; stroke-width: 1.5"/>
    <path d="M 216.818182 124.407762 
L 216.818182 118.368365 
" clip-path="url(#p0b8a4c6c6f)" style="fill: none; stroke: #008080; stroke-width: 1.5"/>
    <path d="M 242.181818 130.456164 
L 242.181818 124.416773 
" clip-path="url(#p0b8a4c6c6f)" style="fill: none; stroke: #008080; stroke-width: 1.5"/>
    <path d="M 267.545455 132.270809 
L 267.545455 126.231419 
" clip-path="url(#p0b8a4c6c6f)" style="fill: none; stroke: #008080; stroke-width: 1.5"/>
    <path d="M 292.909091 134.085453 
L 292.909091 128.046065 
" clip-path="url(#p0b8a4c6c6f)" style="fill: none; stroke: #008080; stroke-width: 1.5"/>
    <path d="M 318.272727 135.900098 
L 318.272727 129.860711 
" clip-path="url(#p0b8a4c6c6f)" style="fill: none; stroke: #008080; stroke-width: 1.5"/>
    <path d="M 343.636364 137.714742 
L 343.636364 131.675357 
" clip-path="url(#p0b8a4c6c6f)" style="fill: none; stroke: #008080; stroke-width: 1.5"/>
    <path d="M 369 139.529387 
L 369 133.490003 
" clip-path="url(#p0b8a4c6c6f)" style="fill: none; stroke: #008080; stroke-width: 1.5"/>
    <path d="M 394.363636 136.504566 
L 394.363636 130.46518 
" clip-path="url(#p0b8a4c6c6f)" style="fill: none; stroke: #008080; stroke-width: 1.5"/>
    <path d="M 419.727273 130.456164 
L 419.727273 124.416773 
" clip-path="url(#p0b8a4c6c6f)" style="fill: none; stroke: #008080; stroke-width: 1.5"/>
    <path d="M 445.090909 127.432582 
L 445.090909 121.393188 
" clip-path="url(#p0b8a4c6c6f)" style="fill: none; stroke: #008080; stroke-width: 1.5"/>
    <path d="M 470.454545 121.38418 
L 470.454545 115.344781 
" clip-path="url(#p0b8a4c6c6f)" style="fill: none; stroke: #008080; stroke-width: 1.5"/>
    <path d="M 495.818182 112.312197 
L 495.818182 106.27279 
" clip-path="url(#p0b8a4c6c6f)" style="fill: none; stroke: #008080; stroke-width: 1.5"/>
    <path d="M 521.181818 106.263795 
L 521.181818 100.224382 
" clip-path="url(#p0b8a4c6c6f)" style="fill: none; stroke: #008080; stroke-width: 1.5"/>
    <path d="M 546.545455 97.191811 
L 546.545455 91.152391 
" clip-path="url(#p0b8a4c6c6f)" style="fill: none; stroke: #008080; stroke-width: 1.5"/>
    <path d="M 571.909091 91.143409 
L 571.909091 85.103983 
" clip-path="url(#p0b8a4c6c6f)" style="fill: none; stroke: #008080; stroke-width: 1.5"/>
    <path d="M 597.272727 79.047844 
L 597.272727 73.008407 
" clip-path="url(#p0b8a4c6c6f)" style="fill: none; stroke: #008080; stroke-width: 1.5"/>
    <path d="M 622.636364 72.999442 
L 622.636364 66.96 
" clip-path="url(#p0b8a4c6c6f)" style="fill: none; stroke: #008080; stroke-width: 1.5"/>
   </g>
   <g id="line2d_34">
    <defs>
     <path id="mb967808268" d="M 3 0 
L -3 -0 
" style="stroke: #008080"/>
    </defs>
    <g clip-path="url(#p0b8a4c6c6f)">
     <use xlink:href="#mb967808268" x="115.363636" y="100.215393" style="fill: #008080; stroke: #008080"/>
     <use xlink:href="#mb967808268" x="140.727273" y="106.263795" style="fill: #008080; stroke: #008080"/>
     <use xlink:href="#mb967808268" x="166.090909" y="112.312197" style="fill: #008080; stroke: #008080"/>
     <use xlink:href="#mb967808268" x="191.454545" y="118.35936" style="fill: #008080; stroke: #008080"/>
     <use xlink:href="#mb967808268" x="216.818182" y="124.407762" style="fill: #008080; stroke: #008080"/>
     <use xlink:href="#mb967808268" x="242.181818" y="130.456164" style="fill: #008080; stroke: #008080"/>
     <use xlink:href="#mb967808268" x="267.545455" y="132.270809" style="fill: #008080; stroke: #008080"/>
     <use xlink:href="#mb967808268" x="292.909091" y="134.085453" style="fill: #008080; stroke: #008080"/>
     <use xlink:href="#mb967808268" x="318.272727" y="135.900098" style="fill: #008080; stroke: #008080"/>
     <use xlink:href="#mb967808268" x="343.636364" y="137.714742" style="fill: #008080; stroke: #008080"/>
     <use xlink:href="#mb967808268" x="369" y="139.529387" style="fill: #008080; stroke: #008080"/>
     <use xlink:href="#mb967808268" x="394.363636" y="136.504566" style="fill: #008080; stroke: #008080"/>
     <use xlink:href="#mb967808268" x="419.727273" y="130.456164" style="fill: #008080; stroke: #008080"/>
     <use xlink:href="#mb967808268" x="445.090909" y="127.432582" style="fill: #008080; stroke: #008080"/>
     <use xlink:href="#mb967808268" x="470.454545" y="121.38418" style="fill: #008080; stroke: #008080"/>
     <use xlink:href="#mb967808268" x="495.818182" y="112.312197" style="fill: #008080; stroke: #008080"/>
     <use xlink:href="#mb967808268" x="521.181818" y="106.263795" style="fill: #008080; stroke: #008080"/>
     <use xlink:href="#mb967808268" x="546.545455" y="97.191811" style="fill: #008080; stroke: #008080"/>
     <use xlink:href="#mb967808268" x="571.909091" y="91.143409" style="fill: #008080; stroke: #008080"/>
     <use xlink:href="#mb967808268" x="597.272727" y="79.047844" style="fill: #008080; stroke: #008080"/>
     <use xlink:href="#mb967808268" x="622.636364" y="72.999442" style="fill: #008080; stroke: #008080"/>
    </g>
   </g>
   <g id="line2d_35">
    <g clip-path="url(#p0b8a4c6c6f)">
     <use xlink:href="#mb967808268" x="115.363636" y="94.175975" style="fill: #008080; stroke: #008080"/>
     <use xlink:href="#mb967808268" x="140.727273" y="100.224382" style="fill: #008080; stroke: #008080"/>
     <use xlink:href="#mb967808268" x="166.090909" y="106.27279" style="fill: #008080; stroke: #008080"/>
     <use xlink:href="#mb967808268" x="191.454545" y="112.319958" style="fill: #008080; stroke: #008080"/>
     <use xlink:href="#mb967808268" x="216.818182" y="118.368365" style="fill: #008080; stroke: #008080"/>
     <use xlink:href="#mb967808268" x="242.181818" y="124.416773" style="fill: #008080; stroke: #008080"/>
     <use xlink:href="#mb967808268" x="267.545455" y="126.231419" style="fill: #008080; stroke: #008080"/>
     <use xlink:href="#mb967808268" x="292.909091" y="128.046065" style="fill: #008080; stroke: #008080"/>
     <use xlink:href="#mb967808268" x="318.272727" y="129.860711" style="fill: #008080; stroke: #008080"/>
     <use xlink:href="#mb967808268" x="343.636364" y="131.675357" style="fill: #008080; stroke: #008080"/>
     <use xlink:href="#mb967808268" x="369" y="133.490003" style="fill: #008080; stroke: #008080"/>
     <use xlink:href="#mb967808268" x="394.363636" y="130.46518" style="fill: #008080; stroke: #008080"/>
     <use xlink:href="#mb967808268" x="419.727273" y="124.416773" style="fill: #008080; stroke: #008080"/>
     <use xlink:href="#mb967808268" x="445.090909" y="121.393188" style="fill: #008080; stroke: #008080"/>
     <use xlink:href="#mb967808268" x="470.454545" y="115.344781" style="fill: #008080; stroke: #008080"/>
     <use xlink:href="#mb967808268" x="495.818182" y="106.27279" style="fill: #008080; stroke: #008080"/>
     <use xlink:href="#mb967808268" x="521.181818" y="100.224382" style="fill: #008080; stroke: #008080"/>
     <use xlink:href="#mb967808268" x="546.545455" y="91.152391" style="fill: #008080; stroke: #008080"/>
     <use xlink:href="#mb967808268" x="571.909091" y="85.103983" style="fill: #008080; stroke: #008080"/>
     <use xlink:href="#mb967808268" x="597.272727" y="73.008407" style="fill: #008080; stroke: #008080"/>
     <use xlink:href="#mb967808268" x="622.636364" y="66.96" style="fill: #008080; stroke: #008080"/>
    </g>
   </g>
   <g id="line2d_36">
    <path d="M 115.363636 72.257739 
L 140.727273 83.543222 
L 166.090909 94.634677 
L 191.454545 105.447821 
L 216.818182 115.862618 
L 242.181818 125.706413 
L 267.545455 134.730896 
L 292.909091 142.58632 
L 318.272727 148.80914 
L 343.636364 152.862726 
L 369 154.278103 
L 394.363636 152.862726 
L 419.727273 148.80914 
L 445.090909 142.58632 
L 470.454545 134.730896 
L 495.818182 125.706413 
L 521.181818 115.862618 
L 546.545455 105.447821 
L 571.909091 94.634677 
L 597.272727 83.543222 
L 622.636364 72.257739 
" clip-path="url(#p0b8a4c6c6f)" style="fill: none; stroke: #0000ff; stroke-width: 1.5; stroke-linecap: square"/>
   </g>
   <g id="line2d_37">
    <path d="M 115.363636 324.002807 
L 140.727273 317.349934 
L 166.090909 310.69706 
L 191.454545 304.042948 
L 216.818182 297.390075 
L 242.181818 290.737201 
L 267.545455 290.137687 
L 292.909091 289.538173 
L 318.272727 288.93742 
L 343.636364 288.337906 
L 369 290.737201 
L 394.363636 293.762023 
L 419.727273 299.934294 
L 445.090909 305.857593 
L 470.454545 311.905998 
L 495.818182 320.977986 
L 521.181818 327.02639 
L 546.545455 336.099617 
L 571.909091 345.171604 
L 597.272727 354.243592 
L 622.636364 366.340401 
" clip-path="url(#p0b8a4c6c6f)" style="fill: none; stroke: #ffa500; stroke-width: 1.5; stroke-linecap: square"/>
   </g>
   <g id="line2d_38">
    <path d="M 115.363636 97.195684 
L 140.727273 103.244088 
L 166.090909 109.292493 
L 191.454545 115.339659 
L 216.818182 121.388064 
L 242.181818 127.436468 
L 267.545455 129.251114 
L 292.909091 131.065759 
L 318.272727 132.880404 
L 343.636364 134.695049 
L 369 136.509695 
L 394.363636 133.484873 
L 419.727273 127.436468 
L 445.090909 124.412885 
L 470.454545 118.364481 
L 495.818182 109.292493 
L 521.181818 103.244088 
L 546.545455 94.172101 
L 571.909091 88.123696 
L 597.272727 76.028125 
L 622.636364 69.979721 
" clip-path="url(#p0b8a4c6c6f)" style="fill: none; stroke: #008080; stroke-width: 1.5; stroke-linecap: square"/>
   </g>
   <g id="patch_3">
    <path d="M 90 384.48 
L 90 51.84 
" style="fill: none; stroke: #000000; stroke-width: 0.8; stroke-linejoin: miter; stroke-linecap: square"/>
   </g>
   <g id="patch_4">
    <path d="M 648 384.48 
L 648 51.84 
" style="fill: none; stroke: #000000; stroke-width: 0.8; stroke-linejoin: miter; stroke-linecap: square"/>
   </g>
   <g id="patch_5">
    <path d="M 90 384.48 
L 648 384.48 
" style="fill: none; stroke: #000000; stroke-width: 0.8; stroke-linejoin: miter; stroke-linecap: square"/>
   </g>
   <g id="patch_6">
    <path d="M 90 51.84 
L 648 51.84 
" style="fill: none; stroke: #000000; stroke-width: 0.8; stroke-linejoin: miter; stroke-linecap: square"/>
   </g>
   <g id="text_17">
    <!-- Resonant frequencies vs. Current -->
    <g transform="translate(269.116875 45.84) scale(0.12 -0.12)">
     <defs>
      <path id="DejaVuSans-52" d="M 2841 2188 
Q 3044 2119 3236 1894 
Q 3428 1669 3622 1275 
L 4263 0 
L 3584 0 
L 2988 1197 
Q 2756 1666 2539 1819 
Q 2322 1972 1947 1972 
L 1259 1972 
L 1259 0 
L 628 0 
L 628 4666 
L 2053 4666 
Q 2853 4666 3247 4331 
Q 3641 3997 3641 3322 
Q 3641 2881 3436 2590 
Q 3231 2300 2841 2188 
z
M 1259 4147 
L 1259 2491 
L 2053 2491 
Q 2509 2491 2742 2702 
Q 2975 2913 2975 3322 
Q 2975 3731 2742 3939 
Q 2509 4147 2053 4147 
L 1259 4147 
z
" transform="scale(0.015625)"/>
      <path id="DejaVuSans-73" d="M 2834 3397 
L 2834 2853 
Q 2591 2978 2328 3040 
Q 2066 3103 1784 3103 
Q 1356 3103 1142 2972 
Q 928 2841 928 2578 
Q 928 2378 1081 2264 
Q 1234 2150 1697 2047 
L 1894 2003 
Q 2506 1872 2764 1633 
Q 3022 1394 3022 966 
Q 3022 478 2636 193 
Q 2250 -91 1575 -91 
Q 1294 -91 989 -36 
Q 684 19 347 128 
L 347 722 
Q 666 556 975 473 
Q 1284 391 1588 391 
Q 1994 391 2212 530 
Q 2431 669 2431 922 
Q 2431 1156 2273 1281 
Q 2116 1406 1581 1522 
L 1381 1569 
Q 847 1681 609 1914 
Q 372 2147 372 2553 
Q 372 3047 722 3315 
Q 1072 3584 1716 3584 
Q 2034 3584 2315 3537 
Q 2597 3491 2834 3397 
z
" transform="scale(0.015625)"/>
      <path id="DejaVuSans-6f" d="M 1959 3097 
Q 1497 3097 1228 2736 
Q 959 2375 959 1747 
Q 959 1119 1226 758 
Q 1494 397 1959 397 
Q 2419 397 2687 759 
Q 2956 1122 2956 1747 
Q 2956 2369 2687 2733 
Q 2419 3097 1959 3097 
z
M 1959 3584 
Q 2709 3584 3137 3096 
Q 3566 2609 3566 1747 
Q 3566 888 3137 398 
Q 2709 -91 1959 -91 
Q 1206 -91 779 398 
Q 353 888 353 1747 
Q 353 2609 779 3096 
Q 1206 3584 1959 3584 
z
" transform="scale(0.015625)"/>
      <path id="DejaVuSans-61" d="M 2194 1759 
Q 1497 1759 1228 1600 
Q 959 1441 959 1056 
Q 959 750 1161 570 
Q 1363 391 1709 391 
Q 2188 391 2477 730 
Q 2766 1069 2766 1631 
L 2766 1759 
L 2194 1759 
z
M 3341 1997 
L 3341 0 
L 2766 0 
L 2766 531 
Q 2569 213 2275 61 
Q 1981 -91 1556 -91 
Q 1019 -91 701 211 
Q 384 513 384 1019 
Q 384 1609 779 1909 
Q 1175 2209 1959 2209 
L 2766 2209 
L 2766 2266 
Q 2766 2663 2505 2880 
Q 2244 3097 1772 3097 
Q 1472 3097 1187 3025 
Q 903 2953 641 2809 
L 641 3341 
Q 956 3463 1253 3523 
Q 1550 3584 1831 3584 
Q 2591 3584 2966 3190 
Q 3341 2797 3341 1997 
z
" transform="scale(0.015625)"/>
      <path id="DejaVuSans-66" d="M 2375 4863 
L 2375 4384 
L 1825 4384 
Q 1516 4384 1395 4259 
Q 1275 4134 1275 3809 
L 1275 3500 
L 2222 3500 
L 2222 3053 
L 1275 3053 
L 1275 0 
L 697 0 
L 697 3053 
L 147 3053 
L 147 3500 
L 697 3500 
L 697 3744 
Q 697 4328 969 4595 
Q 1241 4863 1831 4863 
L 2375 4863 
z
" transform="scale(0.015625)"/>
      <path id="DejaVuSans-69" d="M 603 3500 
L 1178 3500 
L 1178 0 
L 603 0 
L 603 3500 
z
M 603 4863 
L 1178 4863 
L 1178 4134 
L 603 4134 
L 603 4863 
z
" transform="scale(0.015625)"/>
      <path id="DejaVuSans-76" d="M 191 3500 
L 800 3500 
L 1894 563 
L 2988 3500 
L 3597 3500 
L 2284 0 
L 1503 0 
L 191 3500 
z
" transform="scale(0.015625)"/>
     </defs>
     <use xlink:href="#DejaVuSans-52"/>
     <use xlink:href="#DejaVuSans-65" transform="translate(64.982422 0)"/>
     <use xlink:href="#DejaVuSans-73" transform="translate(126.505859 0)"/>
     <use xlink:href="#DejaVuSans-6f" transform="translate(178.605469 0)"/>
     <use xlink:href="#DejaVuSans-6e" transform="translate(239.787109 0)"/>
     <use xlink:href="#DejaVuSans-61" transform="translate(303.166016 0)"/>
     <use xlink:href="#DejaVuSans-6e" transform="translate(364.445312 0)"/>
     <use xlink:href="#DejaVuSans-74" transform="translate(427.824219 0)"/>
     <use xlink:href="#DejaVuSans-20" transform="translate(467.033203 0)"/>
     <use xlink:href="#DejaVuSans-66" transform="translate(498.820312 0)"/>
     <use xlink:href="#DejaVuSans-72" transform="translate(534.025391 0)"/>
     <use xlink:href="#DejaVuSans-65" transform="translate(572.888672 0)"/>
     <use xlink:href="#DejaVuSans-71" transform="translate(634.412109 0)"/>
     <use xlink:href="#DejaVuSans-75" transform="translate(697.888672 0)"/>
     <use xlink:href="#DejaVuSans-65" transform="translate(761.267578 0)"/>
     <use xlink:href="#DejaVuSans-6e" transform="translate(822.791016 0)"/>
     <use xlink:href="#DejaVuSans-63" transform="translate(886.169922 0)"/>
     <use xlink:href="#DejaVuSans-69" transform="translate(941.150391 0)"/>
     <use xlink:href="#DejaVuSans-65" transform="translate(968.933594 0)"/>
     <use xlink:href="#DejaVuSans-73" transform="translate(1030.457031 0)"/>
     <use xlink:href="#DejaVuSans-20" transform="translate(1082.556641 0)"/>
     <use xlink:href="#DejaVuSans-76" transform="translate(1114.34375 0)"/>
     <use xlink:href="#DejaVuSans-73" transform="translate(1173.523438 0)"/>
     <use xlink:href="#DejaVuSans-2e" transform="translate(1225.623047 0)"/>
     <use xlink:href="#DejaVuSans-20" transform="translate(1257.410156 0)"/>
     <use xlink:href="#DejaVuSans-43" transform="translate(1289.197266 0)"/>
     <use xlink:href="#DejaVuSans-75" transform="translate(1359.021484 0)"/>
     <use xlink:href="#DejaVuSans-72" transform="translate(1422.400391 0)"/>
     <use xlink:href="#DejaVuSans-72" transform="translate(1461.763672 0)"/>
     <use xlink:href="#DejaVuSans-65" transform="translate(1500.626953 0)"/>
     <use xlink:href="#DejaVuSans-6e" transform="translate(1562.150391 0)"/>
     <use xlink:href="#DejaVuSans-74" transform="translate(1625.529297 0)"/>
    </g>
   </g>
   <g id="legend_1">
    <g id="patch_7">
     <path d="M 519.1 263.71625 
L 641 263.71625 
Q 643 263.71625 643 261.71625 
L 643 174.60375 
Q 643 172.60375 641 172.60375 
L 519.1 172.60375 
Q 517.1 172.60375 517.1 174.60375 
L 517.1 261.71625 
Q 517.1 263.71625 519.1 263.71625 
z
" style="fill: #ffffff; opacity: 0.8; stroke: #cccccc; stroke-linejoin: miter"/>
    </g>
    <g id="line2d_39">
     <path d="M 521.1 180.702187 
L 531.1 180.702187 
L 541.1 180.702187 
" style="fill: none; stroke-dasharray: 5.55,2.4; stroke-dashoffset: 0; stroke: #000000; stroke-width: 1.5"/>
    </g>
    <g id="text_18">
     <!-- $\Omega_1/(2\pi)$ -->
     <g transform="translate(549.1 184.202187) scale(0.1 -0.1)">
      <defs>
       <path id="DejaVuSans-3a9" d="M 4647 556 
L 4647 0 
L 2772 0 
L 2772 556 
Q 3325 859 3634 1378 
Q 3944 1897 3944 2528 
Q 3944 3278 3531 3731 
Q 3119 4184 2444 4184 
Q 1769 4184 1355 3729 
Q 941 3275 941 2528 
Q 941 1897 1250 1378 
Q 1563 859 2119 556 
L 2119 0 
L 244 0 
L 244 556 
L 1241 556 
Q 747 991 519 1456 
Q 294 1922 294 2497 
Q 294 3491 894 4106 
Q 1491 4722 2444 4722 
Q 3391 4722 3994 4106 
Q 4594 3494 4594 2528 
Q 4594 1922 4372 1459 
Q 4150 997 3647 556 
L 4647 556 
z
" transform="scale(0.015625)"/>
       <path id="DejaVuSans-2f" d="M 1625 4666 
L 2156 4666 
L 531 -594 
L 0 -594 
L 1625 4666 
z
" transform="scale(0.015625)"/>
       <path id="DejaVuSans-Oblique-3c0" d="M 584 3500 
L 3938 3500 
L 3825 2925 
L 3384 2925 
L 2966 775 
Q 2922 550 2981 450 
Q 3038 353 3209 353 
Q 3256 353 3325 363 
Q 3397 369 3419 372 
L 3338 -44 
Q 3222 -84 3103 -103 
Q 2981 -122 2866 -122 
Q 2491 -122 2388 81 
Q 2284 288 2391 838 
L 2797 2925 
L 1506 2925 
L 938 0 
L 350 0 
L 919 2925 
L 472 2925 
L 584 3500 
z
" transform="scale(0.015625)"/>
      </defs>
      <use xlink:href="#DejaVuSans-3a9" transform="translate(0 0.125)"/>
      <use xlink:href="#DejaVuSans-31" transform="translate(77.373047 -16.28125) scale(0.7)"/>
      <use xlink:href="#DejaVuSans-2f" transform="translate(124.643555 0.125)"/>
      <use xlink:href="#DejaVuSans-28" transform="translate(158.334961 0.125)"/>
      <use xlink:href="#DejaVuSans-32" transform="translate(197.348633 0.125)"/>
      <use xlink:href="#DejaVuSans-Oblique-3c0" transform="translate(260.97168 0.125)"/>
      <use xlink:href="#DejaVuSans-29" transform="translate(321.176758 0.125)"/>
     </g>
    </g>
    <g id="line2d_40">
     <path d="M 521.1 195.380312 
L 531.1 195.380312 
L 541.1 195.380312 
" style="fill: none; stroke-dasharray: 5.55,2.4; stroke-dashoffset: 0; stroke: #808080; stroke-width: 1.5"/>
    </g>
    <g id="text_19">
     <!-- $\Omega_2/(2\pi)$ -->
     <g transform="translate(549.1 198.880312) scale(0.1 -0.1)">
      <use xlink:href="#DejaVuSans-3a9" transform="translate(0 0.125)"/>
      <use xlink:href="#DejaVuSans-32" transform="translate(77.373047 -16.28125) scale(0.7)"/>
      <use xlink:href="#DejaVuSans-2f" transform="translate(124.643555 0.125)"/>
      <use xlink:href="#DejaVuSans-28" transform="translate(158.334961 0.125)"/>
      <use xlink:href="#DejaVuSans-32" transform="translate(197.348633 0.125)"/>
      <use xlink:href="#DejaVuSans-Oblique-3c0" transform="translate(260.97168 0.125)"/>
      <use xlink:href="#DejaVuSans-29" transform="translate(321.176758 0.125)"/>
     </g>
    </g>
    <g id="line2d_41">
     <path d="M 521.1 210.058437 
L 531.1 210.058437 
L 541.1 210.058437 
" style="fill: none; stroke: #ff0000; stroke-width: 1.5; stroke-linecap: square"/>
    </g>
    <g id="text_20">
     <!-- $f_-$ (calculated) -->
     <g transform="translate(549.1 213.558437) scale(0.1 -0.1)">
      <defs>
       <path id="DejaVuSans-Oblique-66" d="M 3059 4863 
L 2969 4384 
L 2419 4384 
Q 2106 4384 1964 4261 
Q 1822 4138 1753 3809 
L 1691 3500 
L 2638 3500 
L 2553 3053 
L 1606 3053 
L 1013 0 
L 434 0 
L 1031 3053 
L 481 3053 
L 563 3500 
L 1113 3500 
L 1159 3744 
Q 1278 4363 1576 4613 
Q 1875 4863 2516 4863 
L 3059 4863 
z
" transform="scale(0.015625)"/>
       <path id="DejaVuSans-6c" d="M 603 4863 
L 1178 4863 
L 1178 0 
L 603 0 
L 603 4863 
z
" transform="scale(0.015625)"/>
       <path id="DejaVuSans-64" d="M 2906 2969 
L 2906 4863 
L 3481 4863 
L 3481 0 
L 2906 0 
L 2906 525 
Q 2725 213 2448 61 
Q 2172 -91 1784 -91 
Q 1150 -91 751 415 
Q 353 922 353 1747 
Q 353 2572 751 3078 
Q 1150 3584 1784 3584 
Q 2172 3584 2448 3432 
Q 2725 3281 2906 2969 
z
M 947 1747 
Q 947 1113 1208 752 
Q 1469 391 1925 391 
Q 2381 391 2643 752 
Q 2906 1113 2906 1747 
Q 2906 2381 2643 2742 
Q 2381 3103 1925 3103 
Q 1469 3103 1208 2742 
Q 947 2381 947 1747 
z
" transform="scale(0.015625)"/>
      </defs>
      <use xlink:href="#DejaVuSans-Oblique-66" transform="translate(0 0.015625)"/>
      <use xlink:href="#DejaVuSans-2212" transform="translate(48.842773 -16.390625) scale(0.7)"/>
      <use xlink:href="#DejaVuSans-20" transform="translate(123.867188 0.015625)"/>
      <use xlink:href="#DejaVuSans-28" transform="translate(155.654297 0.015625)"/>
      <use xlink:href="#DejaVuSans-63" transform="translate(194.667969 0.015625)"/>
      <use xlink:href="#DejaVuSans-61" transform="translate(249.648438 0.015625)"/>
      <use xlink:href="#DejaVuSans-6c" transform="translate(310.927734 0.015625)"/>
      <use xlink:href="#DejaVuSans-63" transform="translate(338.710938 0.015625)"/>
      <use xlink:href="#DejaVuSans-75" transform="translate(393.691406 0.015625)"/>
      <use xlink:href="#DejaVuSans-6c" transform="translate(457.070312 0.015625)"/>
      <use xlink:href="#DejaVuSans-61" transform="translate(484.853516 0.015625)"/>
      <use xlink:href="#DejaVuSans-74" transform="translate(546.132812 0.015625)"/>
      <use xlink:href="#DejaVuSans-65" transform="translate(585.341797 0.015625)"/>
      <use xlink:href="#DejaVuSans-64" transform="translate(646.865234 0.015625)"/>
      <use xlink:href="#DejaVuSans-29" transform="translate(710.341797 0.015625)"/>
     </g>
    </g>
    <g id="line2d_42">
     <path d="M 521.1 224.736562 
L 531.1 224.736562 
L 541.1 224.736562 
" style="fill: none; stroke: #0000ff; stroke-width: 1.5; stroke-linecap: square"/>
    </g>
    <g id="text_21">
     <!-- $f_+$ (calculated) -->
     <g transform="translate(549.1 228.236562) scale(0.1 -0.1)">
      <defs>
       <path id="DejaVuSans-2b" d="M 2944 4013 
L 2944 2272 
L 4684 2272 
L 4684 1741 
L 2944 1741 
L 2944 0 
L 2419 0 
L 2419 1741 
L 678 1741 
L 678 2272 
L 2419 2272 
L 2419 4013 
L 2944 4013 
z
" transform="scale(0.015625)"/>
      </defs>
      <use xlink:href="#DejaVuSans-Oblique-66" transform="translate(0 0.015625)"/>
      <use xlink:href="#DejaVuSans-2b" transform="translate(48.842773 -16.390625) scale(0.7)"/>
      <use xlink:href="#DejaVuSans-20" transform="translate(123.867188 0.015625)"/>
      <use xlink:href="#DejaVuSans-28" transform="translate(155.654297 0.015625)"/>
      <use xlink:href="#DejaVuSans-63" transform="translate(194.667969 0.015625)"/>
      <use xlink:href="#DejaVuSans-61" transform="translate(249.648438 0.015625)"/>
      <use xlink:href="#DejaVuSans-6c" transform="translate(310.927734 0.015625)"/>
      <use xlink:href="#DejaVuSans-63" transform="translate(338.710938 0.015625)"/>
      <use xlink:href="#DejaVuSans-75" transform="translate(393.691406 0.015625)"/>
      <use xlink:href="#DejaVuSans-6c" transform="translate(457.070312 0.015625)"/>
      <use xlink:href="#DejaVuSans-61" transform="translate(484.853516 0.015625)"/>
      <use xlink:href="#DejaVuSans-74" transform="translate(546.132812 0.015625)"/>
      <use xlink:href="#DejaVuSans-65" transform="translate(585.341797 0.015625)"/>
      <use xlink:href="#DejaVuSans-64" transform="translate(646.865234 0.015625)"/>
      <use xlink:href="#DejaVuSans-29" transform="translate(710.341797 0.015625)"/>
     </g>
    </g>
    <g id="LineCollection_3">
     <path d="M 531.1 244.41625 
L 531.1 234.41625 
" style="fill: none; stroke: #ffa500; stroke-width: 1.5"/>
    </g>
    <g id="line2d_43">
     <g>
      <use xlink:href="#m4b2b599eb7" x="531.1" y="244.41625" style="fill: #ffa500; stroke: #ffa500"/>
     </g>
    </g>
    <g id="line2d_44">
     <g>
      <use xlink:href="#m4b2b599eb7" x="531.1" y="234.41625" style="fill: #ffa500; stroke: #ffa500"/>
     </g>
    </g>
    <g id="line2d_45">
     <path d="M 521.1 239.41625 
L 541.1 239.41625 
" style="fill: none; stroke: #ffa500; stroke-width: 1.5; stroke-linecap: square"/>
    </g>
    <g id="line2d_46"/>
    <g id="text_22">
     <!-- $f_-$ (experimental) -->
     <g transform="translate(549.1 242.91625) scale(0.1 -0.1)">
      <defs>
       <path id="DejaVuSans-78" d="M 3513 3500 
L 2247 1797 
L 3578 0 
L 2900 0 
L 1881 1375 
L 863 0 
L 184 0 
L 1544 1831 
L 300 3500 
L 978 3500 
L 1906 2253 
L 2834 3500 
L 3513 3500 
z
" transform="scale(0.015625)"/>
       <path id="DejaVuSans-70" d="M 1159 525 
L 1159 -1331 
L 581 -1331 
L 581 3500 
L 1159 3500 
L 1159 2969 
Q 1341 3281 1617 3432 
Q 1894 3584 2278 3584 
Q 2916 3584 3314 3078 
Q 3713 2572 3713 1747 
Q 3713 922 3314 415 
Q 2916 -91 2278 -91 
Q 1894 -91 1617 61 
Q 1341 213 1159 525 
z
M 3116 1747 
Q 3116 2381 2855 2742 
Q 2594 3103 2138 3103 
Q 1681 3103 1420 2742 
Q 1159 2381 1159 1747 
Q 1159 1113 1420 752 
Q 1681 391 2138 391 
Q 2594 391 2855 752 
Q 3116 1113 3116 1747 
z
" transform="scale(0.015625)"/>
       <path id="DejaVuSans-6d" d="M 3328 2828 
Q 3544 3216 3844 3400 
Q 4144 3584 4550 3584 
Q 5097 3584 5394 3201 
Q 5691 2819 5691 2113 
L 5691 0 
L 5113 0 
L 5113 2094 
Q 5113 2597 4934 2840 
Q 4756 3084 4391 3084 
Q 3944 3084 3684 2787 
Q 3425 2491 3425 1978 
L 3425 0 
L 2847 0 
L 2847 2094 
Q 2847 2600 2669 2842 
Q 2491 3084 2119 3084 
Q 1678 3084 1418 2786 
Q 1159 2488 1159 1978 
L 1159 0 
L 581 0 
L 581 3500 
L 1159 3500 
L 1159 2956 
Q 1356 3278 1631 3431 
Q 1906 3584 2284 3584 
Q 2666 3584 2933 3390 
Q 3200 3197 3328 2828 
z
" transform="scale(0.015625)"/>
      </defs>
      <use xlink:href="#DejaVuSans-Oblique-66" transform="translate(0 0.015625)"/>
      <use xlink:href="#DejaVuSans-2212" transform="translate(48.842773 -16.390625) scale(0.7)"/>
      <use xlink:href="#DejaVuSans-20" transform="translate(123.867188 0.015625)"/>
      <use xlink:href="#DejaVuSans-28" transform="translate(155.654297 0.015625)"/>
      <use xlink:href="#DejaVuSans-65" transform="translate(194.667969 0.015625)"/>
      <use xlink:href="#DejaVuSans-78" transform="translate(256.191406 0.015625)"/>
      <use xlink:href="#DejaVuSans-70" transform="translate(315.371094 0.015625)"/>
      <use xlink:href="#DejaVuSans-65" transform="translate(378.847656 0.015625)"/>
      <use xlink:href="#DejaVuSans-72" transform="translate(440.371094 0.015625)"/>
      <use xlink:href="#DejaVuSans-69" transform="translate(481.484375 0.015625)"/>
      <use xlink:href="#DejaVuSans-6d" transform="translate(509.267578 0.015625)"/>
      <use xlink:href="#DejaVuSans-65" transform="translate(606.679688 0.015625)"/>
      <use xlink:href="#DejaVuSans-6e" transform="translate(668.203125 0.015625)"/>
      <use xlink:href="#DejaVuSans-74" transform="translate(731.582031 0.015625)"/>
      <use xlink:href="#DejaVuSans-61" transform="translate(770.791016 0.015625)"/>
      <use xlink:href="#DejaVuSans-6c" transform="translate(832.070312 0.015625)"/>
      <use xlink:href="#DejaVuSans-29" transform="translate(859.853516 0.015625)"/>
     </g>
    </g>
    <g id="LineCollection_4">
     <path d="M 531.1 259.11625 
L 531.1 249.11625 
" style="fill: none; stroke: #008080; stroke-width: 1.5"/>
    </g>
    <g id="line2d_47">
     <g>
      <use xlink:href="#mb967808268" x="531.1" y="259.11625" style="fill: #008080; stroke: #008080"/>
     </g>
    </g>
    <g id="line2d_48">
     <g>
      <use xlink:href="#mb967808268" x="531.1" y="249.11625" style="fill: #008080; stroke: #008080"/>
     </g>
    </g>
    <g id="line2d_49">
     <path d="M 521.1 254.11625 
L 541.1 254.11625 
" style="fill: none; stroke: #008080; stroke-width: 1.5; stroke-linecap: square"/>
    </g>
    <g id="line2d_50"/>
    <g id="text_23">
     <!-- $f_+$ (experimental) -->
     <g transform="translate(549.1 257.61625) scale(0.1 -0.1)">
      <use xlink:href="#DejaVuSans-Oblique-66" transform="translate(0 0.015625)"/>
      <use xlink:href="#DejaVuSans-2b" transform="translate(48.842773 -16.390625) scale(0.7)"/>
      <use xlink:href="#DejaVuSans-20" transform="translate(123.867188 0.015625)"/>
      <use xlink:href="#DejaVuSans-28" transform="translate(155.654297 0.015625)"/>
      <use xlink:href="#DejaVuSans-65" transform="translate(194.667969 0.015625)"/>
      <use xlink:href="#DejaVuSans-78" transform="translate(256.191406 0.015625)"/>
      <use xlink:href="#DejaVuSans-70" transform="translate(315.371094 0.015625)"/>
      <use xlink:href="#DejaVuSans-65" transform="translate(378.847656 0.015625)"/>
      <use xlink:href="#DejaVuSans-72" transform="translate(440.371094 0.015625)"/>
      <use xlink:href="#DejaVuSans-69" transform="translate(481.484375 0.015625)"/>
      <use xlink:href="#DejaVuSans-6d" transform="translate(509.267578 0.015625)"/>
      <use xlink:href="#DejaVuSans-65" transform="translate(606.679688 0.015625)"/>
      <use xlink:href="#DejaVuSans-6e" transform="translate(668.203125 0.015625)"/>
      <use xlink:href="#DejaVuSans-74" transform="translate(731.582031 0.015625)"/>
      <use xlink:href="#DejaVuSans-61" transform="translate(770.791016 0.015625)"/>
      <use xlink:href="#DejaVuSans-6c" transform="translate(832.070312 0.015625)"/>
      <use xlink:href="#DejaVuSans-29" transform="translate(859.853516 0.015625)"/>
     </g>
    </g>
   </g>
  </g>
 </g>
 <defs>
  <clipPath id="p0b8a4c6c6f">
   <rect x="90" y="51.84" width="558" height="332.64"/>
  </clipPath>
 </defs>
</svg>
